<?xml version="1.0" encoding="UTF-8"?>
<!DOCTYPE svg PUBLIC "-//W3C//DTD SVG 1.1//EN" "http://www.w3.org/Graphics/SVG/1.1/DTD/svg11.dtd">
<svg xmlns="http://www.w3.org/2000/svg" version="1.1" width="512px" height="512px" style="shape-rendering:geometricPrecision; text-rendering:geometricPrecision; image-rendering:optimizeQuality; fill-rule:evenodd; clip-rule:evenodd" xmlns:xlink="http://www.w3.org/1999/xlink">
<g><path style="opacity:0.958" fill="#8bc34a" d="M 324.5,75.5 C 278.336,76.4988 232.003,76.8321 185.5,76.5C 219.025,63.2836 253.692,59.7836 289.5,66C 301.493,68.081 313.16,71.2477 324.5,75.5 Z"/></g>
<g><path style="opacity:0.991" fill="#8bc34a" d="M 324.5,75.5 C 339.754,81.1222 353.754,88.7889 366.5,98.5C 292.5,98.5 218.5,98.5 144.5,98.5C 156.789,88.8514 170.456,81.5181 185.5,76.5C 232.003,76.8321 278.336,76.4988 324.5,75.5 Z"/></g>
<g><path style="opacity:0.982" fill="#8bc34a" d="M 144.5,98.5 C 218.5,98.5 292.5,98.5 366.5,98.5C 376.407,105.071 385.407,112.738 393.5,121.5C 369.5,121.5 345.5,121.5 321.5,121.5C 277.513,101.501 233.513,101.501 189.5,121.5C 165.5,121.5 141.5,121.5 117.5,121.5C 125.593,112.738 134.593,105.071 144.5,98.5 Z"/></g>
<g><path style="opacity:0.981" fill="#8bc34a" d="M 117.5,121.5 C 141.5,121.5 165.5,121.5 189.5,121.5C 177.695,127.965 166.695,135.632 156.5,144.5C 137.674,143.503 118.674,143.17 99.5,143.5C 104.372,135.29 110.372,127.956 117.5,121.5 Z"/></g>
<g><path style="opacity:0.98" fill="#8bc34a" d="M 321.5,121.5 C 345.5,121.5 369.5,121.5 393.5,121.5C 400.628,127.956 406.628,135.29 411.5,143.5C 392.424,143.18 373.424,143.513 354.5,144.5C 344.305,135.632 333.305,127.965 321.5,121.5 Z"/></g>
<g><path style="opacity:0.979" fill="#8bc34a" d="M 99.5,143.5 C 118.674,143.17 137.674,143.503 156.5,144.5C 148.493,152.507 140.827,160.841 133.5,169.5C 116.833,169.5 100.167,169.5 83.5,169.5C 87.6516,160.035 92.9849,151.368 99.5,143.5 Z"/></g>
<g><path style="opacity:0.978" fill="#8bc34a" d="M 411.5,143.5 C 418.015,151.368 423.348,160.035 427.5,169.5C 410.833,169.5 394.167,169.5 377.5,169.5C 370.173,160.841 362.507,152.507 354.5,144.5C 373.424,143.513 392.424,143.18 411.5,143.5 Z"/></g>
<g><path style="opacity:0.95" fill="#8bc34a" d="M 277.5,170.5 C 262.833,169.167 248.167,169.167 233.5,170.5C 235.592,153.95 244.926,146.783 261.5,149C 271.794,152.404 277.128,159.57 277.5,170.5 Z"/></g>
<g><path style="opacity:0.984" fill="#8bc34a" d="M 83.5,169.5 C 100.167,169.5 116.833,169.5 133.5,169.5C 128.562,177.711 123.896,186.045 119.5,194.5C 112.364,193.169 104.864,192.503 97,192.5C 89.0909,192.515 81.2575,192.849 73.5,193.5C 75.8739,185.03 79.2072,177.03 83.5,169.5 Z"/></g>
<g><path style="opacity:0.976" fill="#8bc34a" d="M 277.5,170.5 C 277.5,176.5 277.5,182.5 277.5,188.5C 276.566,189.568 276.232,190.901 276.5,192.5C 262.5,192.5 248.5,192.5 234.5,192.5C 234.768,190.901 234.434,189.568 233.5,188.5C 233.5,182.5 233.5,176.5 233.5,170.5C 248.167,169.167 262.833,169.167 277.5,170.5 Z"/></g>
<g><path style="opacity:0.985" fill="#8bc34a" d="M 377.5,169.5 C 394.167,169.5 410.833,169.5 427.5,169.5C 431.571,176.321 434.571,183.654 436.5,191.5C 421.342,192.496 406.009,192.83 390.5,192.5C 386.437,184.711 382.104,177.044 377.5,169.5 Z"/></g>
<g><path style="opacity:0.97" fill="#8bc34a" d="M 233.5,188.5 C 234.434,189.568 234.768,190.901 234.5,192.5C 248.5,192.5 262.5,192.5 276.5,192.5C 276.232,190.901 276.566,189.568 277.5,188.5C 277.5,195.833 277.5,203.167 277.5,210.5C 276.566,211.568 276.232,212.901 276.5,214.5C 262.5,214.5 248.5,214.5 234.5,214.5C 234.768,212.901 234.434,211.568 233.5,210.5C 233.5,203.167 233.5,195.833 233.5,188.5 Z"/></g>
<g><path style="opacity:0.982" fill="#8bc34a" d="M 436.5,191.5 C 439.806,198.76 442.139,206.426 443.5,214.5C 428.5,214.5 413.5,214.5 398.5,214.5C 396.39,206.95 393.723,199.617 390.5,192.5C 406.009,192.83 421.342,192.496 436.5,191.5 Z"/></g>
<g><path style="opacity:0.985" fill="#8bc34a" d="M 119.5,194.5 C 116.968,200.761 114.635,207.095 112.5,213.5C 97.5,214.833 82.5,214.833 67.5,213.5C 68.928,206.559 70.928,199.892 73.5,193.5C 81.2575,192.849 89.0909,192.515 97,192.5C 104.864,192.503 112.364,193.169 119.5,194.5 Z"/></g>
<g><path style="opacity:0.985" fill="#8bc34a" d="M 233.5,210.5 C 234.434,211.568 234.768,212.901 234.5,214.5C 248.5,214.5 262.5,214.5 276.5,214.5C 276.232,212.901 276.566,211.568 277.5,210.5C 277.5,218.167 277.5,225.833 277.5,233.5C 276.596,234.209 276.263,235.209 276.5,236.5C 242.5,236.5 208.5,236.5 174.5,236.5C 167.812,227.216 167.979,217.883 175,208.5C 182.104,202.016 190.271,200.183 199.5,203C 210.5,208.5 221.5,214 232.5,219.5C 233.484,216.572 233.817,213.572 233.5,210.5 Z"/></g>
<g><path style="opacity:0.978" fill="#8bc34a" d="M 67.5,213.5 C 82.5,214.833 97.5,214.833 112.5,213.5C 110.572,221.477 108.905,229.477 107.5,237.5C 92.8333,236.167 78.1667,236.167 63.5,237.5C 64.6167,229.466 65.9501,221.466 67.5,213.5 Z"/></g>
<g><path style="opacity:0.981" fill="#8bc34a" d="M 398.5,214.5 C 413.5,214.5 428.5,214.5 443.5,214.5C 445.265,222.422 446.598,230.422 447.5,238.5C 433.076,236.542 418.41,235.876 403.5,236.5C 402.109,229.225 400.442,221.892 398.5,214.5 Z"/></g>
<g><path style="opacity:0.979" fill="#8bc34a" d="M 277.5,233.5 C 277.666,242.173 277.5,250.84 277,259.5C 276.79,261.058 276.29,262.391 275.5,263.5C 257.833,262.167 240.167,262.167 222.5,263.5C 208.193,256.347 193.86,249.18 179.5,242C 176.921,240.924 175.254,239.091 174.5,236.5C 208.5,236.5 242.5,236.5 276.5,236.5C 276.263,235.209 276.596,234.209 277.5,233.5 Z"/></g>
<g><path style="opacity:0.989" fill="#8bc34a" d="M 107.5,237.5 C 106.876,245.819 106.543,254.152 106.5,262.5C 92.0882,262.184 77.7548,262.518 63.5,263.5C 63.5,254.833 63.5,246.167 63.5,237.5C 78.1667,236.167 92.8333,236.167 107.5,237.5 Z"/></g>
<g><path style="opacity:0.988" fill="#8bc34a" d="M 403.5,236.5 C 418.41,235.876 433.076,236.542 447.5,238.5C 447.5,246.5 447.5,254.5 447.5,262.5C 433.167,262.5 418.833,262.5 404.5,262.5C 404.416,253.822 404.083,245.155 403.5,236.5 Z"/></g>
<g><path style="opacity:0.982" fill="#8bc34a" d="M 106.5,262.5 C 107.433,270.161 108.433,277.828 109.5,285.5C 94.8333,285.5 80.1667,285.5 65.5,285.5C 64.0629,278.257 63.3963,270.924 63.5,263.5C 77.7548,262.518 92.0882,262.184 106.5,262.5 Z"/></g>
<g><path style="opacity:0.954" fill="#8bc34a" d="M 222.5,263.5 C 240.167,262.167 257.833,262.167 275.5,263.5C 269.823,275.5 260.49,279.667 247.5,276C 239.14,271.82 230.807,267.653 222.5,263.5 Z"/></g>
<g><path style="opacity:0.982" fill="#8bc34a" d="M 404.5,262.5 C 418.833,262.5 433.167,262.5 447.5,262.5C 447.647,270.259 446.98,277.925 445.5,285.5C 430.833,285.5 416.167,285.5 401.5,285.5C 402.567,277.828 403.567,270.161 404.5,262.5 Z"/></g>
<g><path style="opacity:0.983" fill="#8bc34a" d="M 65.5,285.5 C 80.1667,285.5 94.8333,285.5 109.5,285.5C 111.496,292.818 113.496,300.151 115.5,307.5C 100.5,307.5 85.5,307.5 70.5,307.5C 67.9162,300.489 66.2495,293.155 65.5,285.5 Z"/></g>
<g><path style="opacity:0.983" fill="#8bc34a" d="M 401.5,285.5 C 416.167,285.5 430.833,285.5 445.5,285.5C 444.579,293.119 442.913,300.452 440.5,307.5C 425.5,307.5 410.5,307.5 395.5,307.5C 397.504,300.151 399.504,292.818 401.5,285.5 Z"/></g>
<g><path style="opacity:0.979" fill="#8bc34a" d="M 70.5,307.5 C 85.5,307.5 100.5,307.5 115.5,307.5C 119.351,315.037 123.017,322.704 126.5,330.5C 110.5,330.5 94.5,330.5 78.5,330.5C 75.0273,323.198 72.3606,315.532 70.5,307.5 Z"/></g>
<g><path style="opacity:0.983" fill="#8bc34a" d="M 395.5,307.5 C 410.5,307.5 425.5,307.5 440.5,307.5C 438.639,315.532 435.973,323.198 432.5,330.5C 416.5,330.5 400.5,330.5 384.5,330.5C 387.983,322.704 391.649,315.037 395.5,307.5 Z"/></g>
<g><path style="opacity:0.982" fill="#8bc34a" d="M 78.5,330.5 C 94.5,330.5 110.5,330.5 126.5,330.5C 132.826,339.161 139.16,347.828 145.5,356.5C 127.5,356.5 109.5,356.5 91.5,356.5C 86.1145,348.396 81.7812,339.729 78.5,330.5 Z"/></g>
<g><path style="opacity:0.982" fill="#8bc34a" d="M 384.5,330.5 C 400.5,330.5 416.5,330.5 432.5,330.5C 429.219,339.729 424.886,348.396 419.5,356.5C 401.5,356.5 383.5,356.5 365.5,356.5C 371.84,347.828 378.174,339.161 384.5,330.5 Z"/></g>
<g><path style="opacity:0.982" fill="#8bc34a" d="M 91.5,356.5 C 109.5,356.5 127.5,356.5 145.5,356.5C 153.898,364.238 162.565,371.572 171.5,378.5C 150.167,378.5 128.833,378.5 107.5,378.5C 101.689,371.559 96.3561,364.226 91.5,356.5 Z"/></g>
<g><path style="opacity:0.983" fill="#8bc34a" d="M 365.5,356.5 C 383.5,356.5 401.5,356.5 419.5,356.5C 414.553,364.739 408.887,372.406 402.5,379.5C 382.167,378.833 361.833,378.167 341.5,377.5C 349.475,370.529 357.475,363.529 365.5,356.5 Z"/></g>
<g><path style="opacity:0.98" fill="#8bc34a" d="M 341.5,377.5 C 361.833,378.167 382.167,378.833 402.5,379.5C 396.5,387.5 389.5,394.5 381.5,400.5C 352.329,400.831 323.329,400.498 294.5,399.5C 311.068,394.089 326.735,386.755 341.5,377.5 Z"/></g>
<g><path style="opacity:0.979" fill="#8bc34a" d="M 107.5,378.5 C 128.833,378.5 150.167,378.5 171.5,378.5C 186.048,387.939 201.715,394.939 218.5,399.5C 189.005,400.498 159.338,400.831 129.5,400.5C 121.167,394.167 113.833,386.833 107.5,378.5 Z"/></g>
<g><path style="opacity:0.989" fill="#8bc34a" d="M 218.5,399.5 C 243.813,406.095 269.147,406.095 294.5,399.5C 323.329,400.498 352.329,400.831 381.5,400.5C 371.257,409.963 359.923,417.963 347.5,424.5C 286.002,423.501 224.336,423.168 162.5,423.5C 150.269,417.555 139.269,409.889 129.5,400.5C 159.338,400.831 189.005,400.498 218.5,399.5 Z"/></g>
<g><path style="opacity:0.977" fill="#8bc34a" d="M 162.5,423.5 C 224.336,423.168 286.002,423.501 347.5,424.5C 301.805,448.71 253.805,454.21 203.5,441C 188.931,436.987 175.264,431.154 162.5,423.5 Z"/></g>
</svg>
