<?xml version="1.0"?>
<svg width="372" height="364" xmlns="http://www.w3.org/2000/svg" xmlns:svg="http://www.w3.org/2000/svg" clip-rule="evenodd" fill-rule="evenodd" version="1.1">
 <g class="layer">
  <title>Layer 1</title>
  <g id="svg_3">
   <path d="m196.5,43.5c-0.79,-0.28 -1.46,-0.78 -2,-1.5c-7.67,-0.67 -15.33,-0.67 -23,0c-0.54,0.72 -1.21,1.22 -2,1.5c-0.09,-1 0.25,-1.83 1,-2.5c8.33,-0.67 16.67,-0.67 25,0c0.75,0.67 1.09,1.5 1,2.5z" fill="#f3f7ef" id="svg_4"/>
  </g>
  <g id="svg_5">
   <path d="m173.5,44.5c5.14,-0.99 10.47,-1.32 16,-1c2.28,0.48 4.28,1.48 6,3c0,0.67 0,1.33 0,2c-1.87,-2.1 -4.21,-3.44 -7,-4c-5,0 -10,0 -15,0z" fill="#9abe81" id="svg_6"/>
  </g>
  <g id="svg_7">
   <path d="m168.5,47.5c-3.44,0.52 -6.77,1.52 -10,3c-0.09,-1 0.25,-1.83 1,-2.5c2.98,-0.5 5.98,-0.66 9,-0.5z" fill="#e1eed4" id="svg_8"/>
  </g>
  <g id="svg_9">
   <path d="m173.5,46.5c4.41,-0.19 8.75,0.31 13,1.5c-0.58,1.42 -1.58,2.25 -3,2.5c-3.02,0.16 -6.02,0 -9,-0.5c-0.84,-1.01 -1.17,-2.18 -1,-3.5z" fill="#71ac34" id="svg_10"/>
  </g>
  <g id="svg_11">
   <path d="m196.5,43.5c0.01,1.52 0.68,2.68 2,3.5c2.65,0.5 5.31,0.66 8,0.5c0,0.33 0,0.67 0,1c-4,0.46 -7.67,-0.2 -11,-2c-0.62,-3.28 -2.62,-4.61 -6,-4c-5.68,-0.17 -11.34,0 -17,0.5c-1.32,0.82 -1.99,1.98 -2,3.5c0,0.33 0,0.67 0,1c-0.33,0 -0.67,0 -1,0c0,-1.33 0,-2.67 0,-4c0.79,-0.28 1.46,-0.78 2,-1.5c7.67,-0.67 15.33,-0.67 23,0c0.54,0.72 1.21,1.22 2,1.5z" fill="#deead3" id="svg_12"/>
  </g>
  <g id="svg_13">
   <path d="m189.5,43.5c0,-0.33 0,-0.67 0,-1c3.38,-0.61 5.38,0.72 6,4c-1.72,-1.52 -3.72,-2.52 -6,-3z" fill="#b6cdac" id="svg_14"/>
  </g>
  <g id="svg_15">
   <path d="m173.5,44.5c5,0 10,0 15,0c0,0.33 0,0.67 0,1c-5.19,-0.32 -10.19,0.01 -15,1c-0.33,0 -0.67,0 -1,0c0,-0.33 0,-0.67 0,-1c0,-0.67 0.33,-1 1,-1z" fill="#8fbd60" id="svg_16"/>
  </g>
  <g id="svg_17">
   <path d="m189.5,42.5c0,0.33 0,0.67 0,1c-5.53,-0.32 -10.86,0.01 -16,1c-0.67,0 -1,0.33 -1,1c-0.67,0.33 -1.33,0.67 -2,1c0.01,-1.52 0.68,-2.68 2,-3.5c5.66,-0.5 11.32,-0.67 17,-0.5z" fill="#c1dba8" id="svg_18"/>
  </g>
  <g id="svg_19">
   <path d="m168.5,47.5c0.33,0 0.67,0 1,0c0.33,0 0.67,0 1,0c-0.11,0.62 -0.44,1.12 -1,1.5c-2.87,0.18 -5.53,0.68 -8,1.5c-1,0.33 -1.67,1 -2,2c-0.33,0 -0.67,0 -1,0c0,-0.67 0,-1.33 0,-2c3.23,-1.48 6.56,-2.48 10,-3z" fill="#c5ddac" id="svg_20"/>
  </g>
  <g id="svg_21">
   <path d="m188.5,44.5c2.79,0.56 5.13,1.9 7,4c0,0.67 0.33,1 1,1c-0.67,0.67 -1.33,1.33 -2,2c-2.63,-1.04 -4.63,-2.71 -6,-5c0,-0.33 0,-0.67 0,-1c0,-0.33 0,-0.67 0,-1z" fill="#70a050" id="svg_22"/>
  </g>
  <g id="svg_23">
   <path d="m195.5,46.5c3.33,1.8 7,2.46 11,2c0.33,1 1,1.67 2,2c0,0.67 0,1.33 0,2c-0.33,0 -0.67,0 -1,0c-0.33,-1 -1,-1.67 -2,-2c-2.79,-0.98 -5.79,-1.31 -9,-1c-0.67,0 -1,-0.33 -1,-1c0,-0.67 0,-1.33 0,-2z" fill="#bed5a7" id="svg_24"/>
  </g>
  <g id="svg_25">
   <path d="m206.5,47.5c1,0 2,0 3,0c0,1 0,2 0,3c-0.33,0 -0.67,0 -1,0c-1,-0.33 -1.67,-1 -2,-2c0,-0.33 0,-0.67 0,-1z" fill="#eef4e8" id="svg_26"/>
  </g>
  <g id="svg_27">
   <path d="m172.5,45.5c0,0.33 0,0.67 0,1c0,0.33 0,0.67 0,1c-0.77,0.67 -1.43,1.51 -2,2.5c-2.98,0.5 -5.98,0.66 -9,0.5c2.47,-0.82 5.13,-1.32 8,-1.5c0.56,-0.38 0.89,-0.88 1,-1.5c0,-0.33 0,-0.67 0,-1c0.67,-0.33 1.33,-0.67 2,-1z" fill="#aacd84" id="svg_28"/>
  </g>
  <g id="svg_29">
   <path d="m172.5,47.5c0.17,1.32 -0.16,2.49 -1,3.5c-3.53,0.18 -6.86,0.68 -10,1.5c-0.77,0.76 -1.27,1.76 -1.5,3c-0.67,0.75 -1.5,1.09 -2.5,1c1.1,-1.1 1.77,-2.44 2,-4c0.33,-1 1,-1.67 2,-2c3.02,0.16 6.02,0 9,-0.5c0.57,-0.99 1.23,-1.83 2,-2.5z" fill="#90bf60" id="svg_30"/>
  </g>
  <g id="svg_31">
   <path d="m196.5,49.5c3.21,-0.31 6.21,0.02 9,1c0,0.67 0,1.33 0,2c-0.33,0 -0.67,0 -1,0c-3.12,-0.98 -6.46,-1.31 -10,-1c0.67,-0.67 1.33,-1.33 2,-2z" fill="#87b25c" id="svg_32"/>
  </g>
  <g id="svg_33">
   <path d="m172.5,46.5c0.33,0 0.67,0 1,0c-0.17,1.32 0.16,2.49 1,3.5c2.98,0.5 5.98,0.66 9,0.5c0.3,0.65 0.64,1.32 1,2c-1.4,4.21 -2.24,8.54 -2.5,13c-0.39,8.11 -0.56,16.11 -0.5,24c-0.53,0.69 -1.19,1.19 -2,1.5c-3,0.33 -6,0.67 -9,1c-4.92,2.2 -9.92,4.2 -15,6c-11.22,8.12 -21.89,16.95 -32,26.5c-5.04,8.75 -9.54,17.75 -13.5,27c-2.36,9.27 -3.2,18.61 -2.5,28c-0.79,8.32 -0.96,16.66 -0.5,25c3.03,6.07 6.53,11.74 10.5,17c0.92,-0.63 1.92,-0.96 3,-1c1.11,1.65 1.27,3.32 0.5,5c3.83,2.82 7.32,5.99 10.5,9.5c0.95,0.48 1.95,0.65 3,0.5c0.9,0.71 1.24,1.71 1,3c4.04,1.06 7.71,2.72 11,5c0.01,1.52 0.68,2.68 2,3.5c3.36,0.34 6.69,0.84 10,1.5c6.97,4.53 14.63,6.2 23,5c0.74,15.36 -0.59,30.36 -4,45c-5.33,0 -10.67,0 -16,0c-0.21,1.64 0.12,3.14 1,4.5c6.66,0.5 13.32,0.67 20,0.5c7.67,0 15.33,0 23,0c0,0.67 -0.33,1 -1,1c-14.34,0.17 -28.67,0 -43,-0.5c-0.75,-0.67 -1.09,-1.5 -1,-2.5c0.14,-1.62 -0.53,-2.79 -2,-3.5c-3.65,-0.5 -7.32,-0.67 -11,-0.5c2.81,-0.82 5.81,-1.32 9,-1.5c0.46,-0.41 0.79,-0.91 1,-1.5c-4.62,-0.99 -9.29,-1.33 -14,-1c-0.07,1.46 0.27,2.79 1,4c-0.67,0 -1.33,0 -2,0c0,-0.67 -0.33,-1 -1,-1c-0.33,-2.54 -1.66,-4.2 -4,-5c1.67,0 3.33,0 5,0c0.67,-3.09 -0.5,-4.76 -3.5,-5c-1.38,0.18 -2.21,0.85 -2.5,2c-0.33,0 -0.67,0 -1,0c0.09,-1 -0.25,-1.83 -1,-2.5c-3.32,-0.5 -6.65,-0.67 -10,-0.5c-0.84,-0.34 -1.17,-1.01 -1,-2c-0.32,-1.55 -1.32,-2.21 -3,-2c-1.42,-1.42 -2.42,-3.09 -3,-5c-1.53,-1.87 -3.53,-3.2 -6,-4c0,-0.67 -0.33,-1 -1,-1c0.13,-0.74 -0.04,-1.41 -0.5,-2c-2.51,-0.54 -4.34,-1.87 -5.5,-4c0,-2 -1,-3 -3,-3c-1,-0.33 -1.67,-1 -2,-2c0.01,-2.64 -1.32,-3.98 -4,-4c-0.67,0 -1,-0.33 -1,-1c0,-0.33 0,-0.67 0,-1c-0.82,-3.14 -1.32,-6.47 -1.5,-10c-1.36,-0.88 -2.86,-1.21 -4.5,-1c-0.67,0 -1,-0.33 -1,-1c0.16,-3.02 0,-6.02 -0.5,-9c-1.44,-1.37 -3.11,-2.37 -5,-3c-0.33,-3.33 -0.67,-6.67 -1,-10c-1.3,-0.59 -2.47,-1.25 -3.5,-2c2.99,0.34 4.32,-0.99 4,-4c-1.15,-43.98 -1.32,-87.98 -0.5,-132c9.42,-0.82 18.92,-1.32 28.5,-1.5c0.67,-0.67 1.33,-1.33 2,-2c-11.51,-1.48 -23.17,-1.98 -35,-1.5c0.33,45.5 0,90.84 -1,136c0,-45.67 0,-91.33 0,-137c11.67,0.17 23.34,0 35,-0.5c0.88,-1.36 1.21,-2.86 1,-4.5c0,-0.67 0.33,-1 1,-1c0,1.67 0,3.33 0,5c7.01,0.17 14.01,0 21,-0.5c1.47,-0.71 2.14,-1.88 2,-3.5c-6.52,0.32 -12.86,-0.01 -19,-1c5.68,0.17 11.34,0 17,-0.5c1.03,-0.51 2.03,-1.01 3,-1.5c2.8,1.14 5.8,1.3 9,0.5c2.67,-1.33 2.67,-2.67 0,-4c-2.98,-0.5 -5.98,-0.66 -9,-0.5c3.33,-0.67 6.67,-1.33 10,-2c0.64,-1.58 1.64,-2.91 3,-4c2.67,-0.67 5.33,-1.33 8,-2c1,0.09 1.83,-0.25 2.5,-1c0.23,-1.24 0.73,-2.24 1.5,-3c3.14,-0.82 6.47,-1.32 10,-1.5c0.84,-1.01 1.17,-2.18 1,-3.5c0,-0.33 0,-0.67 0,-1z" fill="#7bb241" id="svg_34"/>
  </g>
  <g id="svg_35">
   <path d="m158.5,50.5c0,0.67 0,1.33 0,2c-0.33,1 -1,1.67 -2,2c-4.25,-0.69 -7.92,0.31 -11,3c0.23,-1.56 0.9,-2.9 2,-4c3,0 6,0 9,0c-0.22,-1.68 0.45,-2.68 2,-3z" fill="#e2eed5" id="svg_36"/>
  </g>
  <g id="svg_37">
   <path d="m208.5,50.5c0.33,0 0.67,0 1,0c0.55,2.58 2.22,3.58 5,3c1.6,-0.27 2.93,0.07 4,1c-2.67,0 -5.33,0 -8,0c-1,-0.33 -1.67,-1 -2,-2c0,-0.67 0,-1.33 0,-2z" fill="#e0ebd5" id="svg_38"/>
  </g>
  <g id="svg_39">
   <path d="m210.5,54.5c2.67,0 5.33,0 8,0c1.1,1.1 1.77,2.44 2,4c-1,-0.67 -2,-1.33 -3,-2c-2.33,-0.67 -4.67,-1.33 -7,-2z" fill="#c2d8ac" id="svg_40"/>
  </g>
  <g id="svg_41">
   <path d="m214.5,53.5c5.15,-2.41 7.48,-0.74 7,5c-0.33,0 -0.67,0 -1,0c-0.23,-1.56 -0.9,-2.9 -2,-4c-1.07,-0.93 -2.4,-1.27 -4,-1z" fill="#eff5e9" id="svg_42"/>
  </g>
  <g id="svg_43">
   <path d="m147.5,53.5c-1.1,1.1 -1.77,2.44 -2,4c0.17,0.99 -0.16,1.66 -1,2c-0.16,-1.7 0.01,-3.37 0.5,-5c0.67,-0.75 1.5,-1.09 2.5,-1z" fill="#f1f6ea" id="svg_44"/>
  </g>
  <g id="svg_45">
   <path d="m158.5,52.5c0.33,0 0.67,0 1,0c-0.23,1.56 -0.9,2.9 -2,4c-2.67,0 -5.33,0 -8,0c2.33,-0.67 4.67,-1.33 7,-2c1,-0.33 1.67,-1 2,-2z" fill="#aed08a" id="svg_46"/>
  </g>
  <g id="svg_47">
   <path d="m161.5,52.5c12,1.33 12,2.67 0,4c0,-1.33 0,-2.67 0,-4z" fill="#71ac32" id="svg_48"/>
  </g>
  <g id="svg_49">
   <path d="m204.5,52.5c0,1.33 0,2.67 0,4c-3,0 -6,0 -9,0c-0.14,-1.62 0.53,-2.79 2,-3.5c2.31,-0.5 4.64,-0.66 7,-0.5z" fill="#5c9620" id="svg_50"/>
  </g>
  <g id="svg_51">
   <path d="m207.5,52.5c0.33,0 0.67,0 1,0c0.33,1 1,1.67 2,2c2.33,0.67 4.67,1.33 7,2c-2.69,0.16 -5.35,0 -8,-0.5c-1.32,-0.82 -1.99,-1.98 -2,-3.5z" fill="#a5c585" id="svg_52"/>
  </g>
  <g id="svg_53">
   <path d="m204.5,52.5c0.33,0 0.67,0 1,0c0.72,1.59 1.72,3.09 3,4.5c3,0.33 6,0.67 9,1c0.63,1.89 1.63,3.56 3,5c2.98,0.5 5.98,0.66 9,0.5c0,0.33 0,0.67 0,1c-2.77,-0.08 -5.44,0.42 -8,1.5c-0.84,1.01 -1.17,2.18 -1,3.5c3,0 6,0 9,0c0,-1.33 0,-2.67 0,-4c0.77,0.76 1.27,1.76 1.5,3c0.67,0.75 1.5,1.09 2.5,1c6.85,-0.32 13.52,0.01 20,1c0.33,0 0.67,0 1,0c-0.32,2.22 0.34,4.06 2,5.5c9.33,0.5 18.66,0.67 28,0.5c-8.48,0.99 -17.15,1.33 -26,1c-1,0 -2,0 -3,0c-0.17,1.32 0.16,2.49 1,3.5c9.58,0.18 19.08,0.68 28.5,1.5c0.5,45.33 0.67,90.66 0.5,136c1.33,0 2.67,0 4,0c-1.03,0.75 -2.2,1.41 -3.5,2c-0.18,3.53 -0.68,6.86 -1.5,10c-0.67,0.67 -1.33,1.33 -2,2c-1,-0.09 -1.83,0.25 -2.5,1c-0.5,2.98 -0.67,5.98 -0.5,9c-0.33,0 -0.67,0 -1,0c-0.44,-3.65 -0.78,-7.32 -1,-11c-1.32,-0.17 -2.49,0.16 -3.5,1c-0.5,3.32 -0.67,6.65 -0.5,10c1.33,0 2.67,0 4,0c-0.34,0.84 -1.01,1.17 -2,1c-1,0 -2,0 -3,0c0,2 0,4 0,6c-3.94,-1.2 -5.61,0.47 -5,5c1.67,0 3.33,0 5,0c0,0.33 0,0.67 0,1c-2.33,0.33 -3.67,1.67 -4,4c-0.67,0 -1.33,0 -2,0c0,-1.33 0,-2.67 0,-4c-4.44,-1.07 -6.44,0.59 -6,5c2,0 4,0 6,0c-4.14,3.65 -7.81,7.65 -11,12c0,0.67 -0.33,1 -1,1c-3.69,-0.18 -5.69,1.49 -6,5c-0.33,1 -1,1.67 -2,2c-3.41,-0.12 -4.74,1.55 -4,5c-0.33,0 -0.67,0 -1,0c0,-1.67 0,-3.33 0,-5c-2.9,-0.22 -5.57,0.45 -8,2c1.27,0.79 2.27,1.79 3,3c-1.7,-0.16 -3.37,0.01 -5,0.5c-0.75,0.67 -1.09,1.5 -1,2.5c0.15,1.05 -0.02,2.05 -0.5,3c-2.33,1.16 -4.16,2.83 -5.5,5c-0.33,0 -0.67,0 -1,0c0,-1.33 0,-2.67 0,-4c-5.34,-0.17 -10.68,0 -16,0.5c-0.84,1.01 -1.17,2.18 -1,3.5c4.2,-0.32 8.2,0.02 12,1c-4.4,-0.21 -8.73,0.13 -13,1c-7.39,-0.26 -14.72,0.07 -22,1c0,-0.67 -0.33,-1 -1,-1c0.09,-15.06 0.76,-30.06 2,-45c3.02,-0.3 6.02,-0.8 9,-1.5c0.86,-2.02 2.19,-3.52 4,-4.5c4.06,0.65 6.06,-1.01 6,-5c0,-0.67 0.33,-1 1,-1c3.67,0 7.33,0 11,0c0,-1.33 0,-2.67 0,-4c0.33,-1 1,-1.67 2,-2c2.69,0.16 5.35,0 8,-0.5c1.26,-0.42 1.92,-1.25 2,-2.5c0.57,-1.91 1.57,-3.58 3,-5c0.33,0 0.67,0 1,0c1.41,-0.47 2.07,-1.47 2,-3c0,-0.67 0.33,-1 1,-1c5.36,-0.06 7.36,-2.73 6,-8c1.18,-3.38 2.84,-5.72 5,-7c-0.16,3.02 0,6.02 0.5,9c4.2,-8.72 8.03,-17.56 11.5,-26.5c0.06,-13.73 -0.11,-27.57 -0.5,-41.5c-3.9,-2.94 -5.56,-6.94 -5,-12c-1,-2.33 -2.67,-4 -5,-5c-1.75,-2.75 -2.75,-5.75 -3,-9c-2.5,-1.17 -5,-2.33 -7.5,-3.5c-6.34,-10.67 -15.34,-18.01 -27,-22c-4.5,-0.75 -8.84,-1.91 -13,-3.5c-0.39,-1.78 -1.06,-3.45 -2,-5c-0.18,-2.09 0.15,-4.09 1,-6c-1.43,-3.17 -2.1,-6.5 -2,-10c0.47,-6.06 1.13,-11.73 2,-17c3,0 6,0 9,0c0,-1.33 0,-2.67 0,-4z" fill="#679d30" id="svg_54"/>
  </g>
  <g id="svg_55">
   <path d="m149.5,56.5c2.67,0 5.33,0 8,0c-2.67,0.67 -5.33,1.33 -8,2c-1.36,1.09 -2.36,2.42 -3,4c0,-0.67 0,-1.33 0,-2c0.24,-1.9 1.24,-3.24 3,-4z" fill="#96c268" id="svg_56"/>
  </g>
  <g id="svg_57">
   <path d="m144.5,59.5c-2.81,0.82 -5.81,1.32 -9,1.5c-1.28,1.41 -2.28,2.91 -3,4.5c0,-2 0,-4 0,-6c4,0 8,0 12,0z" fill="#e9f2e0" id="svg_58"/>
  </g>
  <g id="svg_59">
   <path d="m212.5,58.5c3.45,-0.74 5.12,0.59 5,4c-3.31,0.44 -6.31,-0.23 -9,-2c1.45,-0.67 2.78,-1.34 4,-2z" fill="#5c9620" id="svg_60"/>
  </g>
  <g id="svg_61">
   <path d="m222.5,60.5c3.33,0 6.67,0 10,0c0,1 0,2 0,3c-3.23,-1.48 -6.56,-2.48 -10,-3z" fill="#c9dcb5" id="svg_62"/>
  </g>
  <g id="svg_63">
   <path d="m146.5,60.5c0,0.67 0,1.33 0,2c-3.33,0.67 -6.67,1.33 -10,2c-0.77,0.76 -1.27,1.76 -1.5,3c-0.67,0.75 -1.5,1.09 -2.5,1c-6.67,0 -13.33,0 -20,0c6.82,-0.83 13.82,-1.33 21,-1.5c0.63,-1.89 1.63,-3.56 3,-5c3.42,-0.25 6.75,-0.75 10,-1.5z" fill="#a9cd83" id="svg_64"/>
  </g>
  <g id="svg_65">
   <path d="m149.5,58.5c2.67,0.33 5.33,0.67 8,1c0,1 0,2 0,3c-2.67,0 -5.33,0 -8,0c0,-1.33 0,-2.67 0,-4z" fill="#70ac31" id="svg_66"/>
  </g>
  <g id="svg_67">
   <path d="m205.5,50.5c1,0.33 1.67,1 2,2c0.01,1.52 0.68,2.68 2,3.5c2.65,0.5 5.31,0.66 8,0.5c1,0.67 2,1.33 3,2c-0.17,1.32 0.16,2.49 1,3.5c2.87,0.18 5.53,0.68 8,1.5c-3.02,0.16 -6.02,0 -9,-0.5c-1.37,-1.44 -2.37,-3.11 -3,-5c-3,-0.33 -6,-0.67 -9,-1c-1.28,-1.41 -2.28,-2.91 -3,-4.5c0,-0.67 0,-1.33 0,-2z" fill="#89b35e" id="svg_68"/>
  </g>
  <g id="svg_69">
   <path d="m132.5,65.5c-6.82,0.83 -13.82,1.33 -21,1.5c-1.57,1.4 -2.9,2.9 -4,4.5c0.33,-2 0.67,-4 1,-6c8,0 16,0 24,0z" fill="#eaf2e1" id="svg_70"/>
  </g>
  <g id="svg_71">
   <path d="m221.5,59.5c4.06,-0.32 8.06,0.01 12,1c0.57,1.56 1.24,3.06 2,4.5c7.33,0.33 14.67,0.67 22,1c0.84,1.01 1.17,2.18 1,3.5c-0.97,-1.31 -2.3,-1.97 -4,-2c-6.68,0.17 -13.34,0 -20,-0.5c-1.32,-0.82 -1.99,-1.98 -2,-3.5c0,-1 0,-2 0,-3c-3.33,0 -6.67,0 -10,0c-0.67,0 -1,-0.33 -1,-1z" fill="#e1ebd6" id="svg_72"/>
  </g>
  <g id="svg_73">
   <path d="m156.5,54.5c-2.33,0.67 -4.67,1.33 -7,2c-1.76,0.76 -2.76,2.1 -3,4c-3.25,0.75 -6.58,1.25 -10,1.5c-1.37,1.44 -2.37,3.11 -3,5c-7.18,0.17 -14.18,0.67 -21,1.5c-1.89,1.47 -3.56,3.14 -5,5c-10.67,-0.17 -21.34,0 -32,0.5c-0.5,0.5 -1,1 -1.5,1.5c-0.5,47.67 -0.67,95.33 -0.5,143c-1,-47.5 -1.33,-95.16 -1,-143c0.45,-0.96 1.12,-1.79 2,-2.5c11.17,-0.17 22.17,-0.67 33,-1.5c1.1,-1.6 2.43,-3.1 4,-4.5c7.18,-0.17 14.18,-0.67 21,-1.5c0.72,-1.59 1.72,-3.09 3,-4.5c3.19,-0.18 6.19,-0.68 9,-1.5c0.84,-0.34 1.17,-1.01 1,-2c3.08,-2.69 6.75,-3.69 11,-3z" fill="#c9dfb1" id="svg_74"/>
  </g>
  <g id="svg_75">
   <path d="m136.5,64.5c3.02,-0.16 6.02,0 9,0.5c2.67,1.33 2.67,2.67 0,4c-3.2,0.8 -6.2,0.64 -9,-0.5c0,-1.33 0,-2.67 0,-4z" fill="#74ae37" id="svg_76"/>
  </g>
  <g id="svg_77">
   <path d="m220.5,58.5c0.33,0 0.67,0 1,0c0,0.33 0,0.67 0,1c0,0.67 0.33,1 1,1c3.44,0.52 6.77,1.52 10,3c0.01,1.52 0.68,2.68 2,3.5c6.66,0.5 13.32,0.67 20,0.5c0,0.33 0,0.67 0,1c-7,0 -14,0 -21,0c-1.33,-1.67 -2.67,-3.33 -4,-5c-2.47,-0.82 -5.13,-1.32 -8,-1.5c-0.84,-1.01 -1.17,-2.18 -1,-3.5z" fill="#a8c789" id="svg_78"/>
  </g>
  <g id="svg_79">
   <path d="m112.5,68.5c6.67,0 13.33,0 20,0c-6.67,0.67 -13.33,1.33 -20,2c-0.67,0 -1,0.33 -1,1c-0.74,1.73 -2.07,2.73 -4,3c0,-0.33 0,-0.67 0,-1c1.44,-1.86 3.11,-3.53 5,-5z" fill="#9ec774" id="svg_80"/>
  </g>
  <g id="svg_81">
   <path d="m229.5,64.5c0,0.33 0,0.67 0,1c0,1.33 0,2.67 0,4c-3,0 -6,0 -9,0c-0.17,-1.32 0.16,-2.49 1,-3.5c2.56,-1.08 5.23,-1.58 8,-1.5z" fill="#5e9723" id="svg_82"/>
  </g>
  <g id="svg_83">
   <path d="m229.5,63.5c1.33,1.67 2.67,3.33 4,5c0,0.33 0,0.67 0,1c-1,0.09 -1.83,-0.25 -2.5,-1c-0.23,-1.24 -0.73,-2.24 -1.5,-3c0,-0.33 0,-0.67 0,-1c0,-0.33 0,-0.67 0,-1z" fill="#7caa4c" id="svg_84"/>
  </g>
  <g id="svg_85">
   <path d="m233.5,69.5c0,-0.33 0,-0.67 0,-1c7,0 14,0 21,0c0,0.67 0,1.33 0,2c-0.33,0 -0.67,0 -1,0c-6.48,-0.99 -13.15,-1.32 -20,-1z" fill="#8cb562" id="svg_86"/>
  </g>
  <g id="svg_87">
   <path d="m136.5,64.5c0,1.33 0,2.67 0,4c-0.97,0.49 -1.97,0.99 -3,1.5c-5.66,0.5 -11.32,0.67 -17,0.5c-1.33,0 -2.67,0 -4,0c6.67,-0.67 13.33,-1.33 20,-2c1,0.09 1.83,-0.25 2.5,-1c0.23,-1.24 0.73,-2.24 1.5,-3z" fill="#86b951" id="svg_88"/>
  </g>
  <g id="svg_89">
   <path d="m254.5,68.5c1.41,0.47 2.07,1.47 2,3c-0.67,-0.33 -1.33,-0.67 -2,-1c0,-0.67 0,-1.33 0,-2z" fill="#9fc17c" id="svg_90"/>
  </g>
  <g id="svg_91">
   <path d="m73.5,71.5c11.33,0 22.67,0 34,0c-10.83,0.83 -21.83,1.33 -33,1.5c-0.88,0.71 -1.55,1.54 -2,2.5c-0.33,0 -0.67,0 -1,0c0.23,-1.56 0.9,-2.9 2,-4z" fill="#ebf3e2" id="svg_92"/>
  </g>
  <g id="svg_93">
   <path d="m112.5,70.5c1.33,0 2.67,0 4,0c6.14,0.99 12.48,1.32 19,1c0.14,1.62 -0.53,2.79 -2,3.5c-6.99,0.5 -13.99,0.67 -21,0.5c0,-1.67 0,-3.33 0,-5z" fill="#73ae36" id="svg_94"/>
  </g>
  <g id="svg_95">
   <path d="m253.5,70.5c0,1.67 0,3.33 0,5c-7.01,0.17 -14.01,0 -21,-0.5c-0.86,-0.69 -1.52,-1.52 -2,-2.5c7.67,-0.81 15.33,-1.47 23,-2z" fill="#5e9723" id="svg_96"/>
  </g>
  <g id="svg_97">
   <path d="m254.5,68.5c0,-0.33 0,-0.67 0,-1c1.7,0.03 3.03,0.69 4,2c-0.17,0.99 0.16,1.66 1,2c10.67,0.67 21.33,1.33 32,2c-11,0 -22,0 -33,0c-0.33,-1 -1,-1.67 -2,-2c0.07,-1.53 -0.59,-2.53 -2,-3z" fill="#cddfbb" id="svg_98"/>
  </g>
  <g id="svg_99">
   <path d="m256.5,71.5c1,0.33 1.67,1 2,2c10.82,0.99 21.82,1.33 33,1c0,0.67 0,1.33 0,2c-0.33,0 -0.67,0 -1,0c-10.83,-0.83 -21.83,-1.33 -33,-1.5c-0.84,-1.01 -1.17,-2.18 -1,-3.5z" fill="#8fb766" id="svg_100"/>
  </g>
  <g id="svg_101">
   <path d="m73.5,71.5c-1.1,1.1 -1.77,2.44 -2,4c-0.17,48.33 0,96.67 0.5,145c0.99,0.57 1.83,1.23 2.5,2c-1.32,0.17 -2.49,-0.16 -3.5,-1c-0.67,-49.67 -0.67,-99.33 0,-149c0.67,-0.75 1.5,-1.09 2.5,-1z" fill="#f1f7eb" id="svg_102"/>
  </g>
  <g id="svg_103">
   <path d="m111.5,71.5c0.21,1.64 -0.12,3.14 -1,4.5c-11.66,0.5 -23.33,0.67 -35,0.5c10.67,-0.67 21.33,-1.33 32,-2c1.93,-0.27 3.26,-1.27 4,-3z" fill="#89ba55" id="svg_104"/>
  </g>
  <g id="svg_105">
   <path d="m254.5,70.5c0.67,0.33 1.33,0.67 2,1c-0.17,1.32 0.16,2.49 1,3.5c11.17,0.17 22.17,0.67 33,1.5c-2,0 -4,0 -6,0c-9.34,0.17 -18.67,0 -28,-0.5c-1.66,-1.44 -2.32,-3.28 -2,-5.5z" fill="#77a745" id="svg_106"/>
  </g>
  <g id="svg_107">
   <path d="m295.5,74.5c1.17,48.5 1.33,97.16 0.5,146c-1.84,1.67 -4.01,2.67 -6.5,3c0.85,-1.47 2.18,-2.3 4,-2.5c0.75,-0.67 1.09,-1.5 1,-2.5c1,-47.83 1.33,-95.83 1,-144z" fill="#f7f9f4" id="svg_108"/>
  </g>
  <g id="svg_109">
   <path d="m259.5,71.5c11.34,-0.17 22.67,0 34,0.5c1.26,0.42 1.92,1.25 2,2.5c0.33,48.17 0,96.17 -1,144c0,-48.33 0,-96.67 0,-145c-1,0 -2,0 -3,0c-10.67,-0.67 -21.33,-1.33 -32,-2z" fill="#e3edda" id="svg_110"/>
  </g>
  <g id="svg_111">
   <path d="m77.5,218.5c-1.71,-1.13 -2.38,-2.8 -2,-5c1,-45.16 1.33,-90.5 1,-136c11.83,-0.48 23.49,0.02 35,1.5c-0.67,0.67 -1.33,1.33 -2,2c-9.58,0.18 -19.08,0.68 -28.5,1.5c-0.82,44.02 -0.65,88.02 0.5,132c0.32,3.01 -1.01,4.34 -4,4z" fill="#73ae36" id="svg_112"/>
  </g>
  <g id="svg_113">
   <path d="m107.5,73.5c0,0.33 0,0.67 0,1c-10.67,0.67 -21.33,1.33 -32,2c-1.16,47.17 -1.33,94.5 -0.5,142c0.72,0.54 1.22,1.21 1.5,2c-1.53,0.07 -2.53,-0.59 -3,-2c-0.17,-47.67 0,-95.33 0.5,-143c0.5,-0.5 1,-1 1.5,-1.5c10.66,-0.5 21.33,-0.67 32,-0.5z" fill="#a7cc81" id="svg_114"/>
  </g>
  <g id="svg_115">
   <path d="m290.5,76.5c0.33,0 0.67,0 1,0c0,47.33 0,94.67 0,142c-0.67,0 -1.33,0 -2,0c-1.33,0 -2.67,0 -4,0c0.17,-45.34 0,-90.67 -0.5,-136c-9.42,-0.82 -18.92,-1.32 -28.5,-1.5c-0.84,-1.01 -1.17,-2.18 -1,-3.5c1,0 2,0 3,0c-1.1,0.9 -1.1,1.73 0,2.5c9.38,0.19 18.71,0.69 28,1.5c1.31,45.35 1.31,90.68 0,136c1.33,0 2.67,0 4,0c0,-47 0,-94 0,-141z" fill="#649b2c" id="svg_116"/>
  </g>
  <g id="svg_117">
   <path d="m71.5,75.5c0.33,0 0.67,0 1,0c-0.33,47.84 0,95.5 1,143c0.47,1.41 1.47,2.07 3,2c1.82,3.35 2.49,7.01 2,11c-0.95,-1.42 -1.28,-3.09 -1,-5c0.41,-2.47 -0.59,-3.81 -3,-4c-0.67,-0.77 -1.51,-1.43 -2.5,-2c-0.5,-48.33 -0.67,-96.67 -0.5,-145z" fill="#dbeaca" id="svg_118"/>
  </g>
  <g id="svg_119">
   <path d="m75.5,76.5c0,45.67 0,91.33 0,137c-0.38,2.2 0.29,3.87 2,5c1.03,0.75 2.2,1.41 3.5,2c0.33,3.33 0.67,6.67 1,10c1.89,0.63 3.56,1.63 5,3c0.5,2.98 0.66,5.98 0.5,9c-0.82,-2.47 -1.32,-5.13 -1.5,-8c-0.38,-0.56 -0.88,-0.89 -1.5,-1c-0.67,0 -1.33,0 -2,0c-2.57,-3.45 -3.74,-7.45 -3.5,-12c-0.67,-0.75 -1.5,-1.09 -2.5,-1c-0.28,-0.79 -0.78,-1.46 -1.5,-2c-0.83,-47.5 -0.66,-94.83 0.5,-142z" fill="#91bf60" id="svg_120"/>
  </g>
  <g id="svg_121">
   <path d="m284.5,76.5c2,0 4,0 6,0c0,47 0,94 0,141c-1.33,0 -2.67,0 -4,0c1.31,-45.32 1.31,-90.65 0,-136c-9.29,-0.81 -18.62,-1.31 -28,-1.5c-1.1,-0.77 -1.1,-1.6 0,-2.5c8.85,0.33 17.52,-0.01 26,-1z" fill="#5e9823" id="svg_122"/>
  </g>
  <g id="svg_123">
   <path d="m291.5,74.5c0.62,0.11 1.12,0.44 1.5,1c0.67,48 0.67,96 0,144c-0.67,0.75 -1.5,1.09 -2.5,1c0.33,-0.67 0.67,-1.33 1,-2c0,-47.33 0,-94.67 0,-142c0,-0.67 0,-1.33 0,-2z" fill="#9fc17b" id="svg_124"/>
  </g>
  <g id="svg_125">
   <path d="m258.5,73.5c11,0 22,0 33,0c1,0 2,0 3,0c0,48.33 0,96.67 0,145c0.09,1 -0.25,1.83 -1,2.5c-1.82,0.2 -3.15,1.03 -4,2.5c-0.97,2.45 -1.31,5.12 -1,8c-1.11,1.1 -2.44,1.77 -4,2c0,-0.33 0,-0.67 0,-1c1,-0.33 1.67,-1 2,-2c0.52,-3.44 1.52,-6.77 3,-10c0.33,0 0.67,0 1,0c1,0.09 1.83,-0.25 2.5,-1c0.67,-48 0.67,-96 0,-144c-0.38,-0.56 -0.88,-0.89 -1.5,-1c-11.18,0.33 -22.18,-0.01 -33,-1z" fill="#c4d9ae" id="svg_126"/>
  </g>
  <g id="svg_127">
   <path d="m194.5,89.5c0.94,1.55 1.61,3.22 2,5c-0.33,1 -1,1.67 -2,2c-4.19,0.45 -8.19,1.62 -12,3.5c-1.64,1.13 -2.64,2.63 -3,4.5c-1.88,0.84 -3.88,1.17 -6,1c-0.64,-0.98 -1.31,-1.98 -2,-3c0.67,-1 1.33,-2 2,-3c3.93,-1.15 7.93,-1.99 12,-2.5c3.13,-2.52 6.13,-5.02 9,-7.5z" fill="#669a35" id="svg_128"/>
  </g>
  <g id="svg_129">
   <path d="m194.5,96.5c1.4,1.43 3.07,2.6 5,3.5c7.87,2.89 15.53,6.06 23,9.5c5.01,5.51 10.18,10.84 15.5,16c5.94,6.87 10.6,14.53 14,23c0.74,15.69 0.41,31.36 -1,47c-2.33,4.15 -4.16,8.49 -5.5,13c-2.16,1.28 -3.82,3.62 -5,7c0,-1 0,-2 0,-3c2.25,-4.64 3.58,-9.64 4,-15c1.87,-0.36 3.37,-1.36 4.5,-3c0.23,-10.51 0.39,-21.17 0.5,-32c0.17,-4.68 0,-9.34 -0.5,-14c-3.69,-2.72 -5.69,-6.38 -6,-11c-3.76,-3.09 -6.76,-6.75 -9,-11c-5.52,-4.52 -10.69,-9.36 -15.5,-14.5c-4.42,-1.25 -8.42,-3.25 -12,-6c-3.29,-0.88 -6.62,-1.55 -10,-2c-3.93,-4.4 -7.93,-4.57 -12,-0.5c3.94,8 5.27,16.34 4,25c-1.33,0 -2.67,0 -4,0c-0.45,-8.02 -1.11,-16.02 -2,-24c-1,0 -2,0 -3,0c0.36,-1.87 1.36,-3.37 3,-4.5c3.81,-1.88 7.81,-3.05 12,-3.5z" fill="#5f922d" id="svg_130"/>
  </g>
  <g id="svg_131" transform="matrix(1 0 0 1 0 0)">
   <path d="m173.5,105.5c2.12,0.17 4.12,-0.16 6,-1c2.29,6.77 3.62,13.77 4,21c-0.32,1.15 -0.98,1.98 -2,2.5c2.67,1 2.67,2 0,3c1.29,0.49 2.63,0.66 4,0.5c0,0.33 0,0.67 0,1c-2.88,-0.31 -5.55,0.03 -8,1c-0.33,0 -0.67,0 -1,0c-2,0.33 -4,0.67 -6,1c0.07,1.46 -0.27,2.79 -1,4c-3.01,0.08 -5.01,1.41 -6,4c0,0.33 0,0.67 0,1c-1.38,1.3 -3.05,2.13 -5,2.5c-0.75,0.67 -1.09,1.5 -1,2.5c0.07,1.53 -0.59,2.53 -2,3c-1.89,-0.2 -3.39,0.46 -4.5,2c-0.67,10.33 -0.67,20.67 0,31c0.67,0.75 1.5,1.09 2.5,1c3.34,1.95 4.67,4.95 4,9c-3.35,-0.16 -6.68,0 -10,0.5c-1.28,1.41 -2.28,2.91 -3,4.5c-2.72,0.18 -5.38,0.68 -8,1.5c-1.32,0.82 -1.99,1.98 -2,3.5c-2.26,1.93 -4.76,3.6 -7.5,5c-0.49,1.63 -0.66,3.3 -0.5,5c-0.67,0 -1,0.33 -1,1c-0.33,0 -0.67,0 -1,0c-2.28,-0.31 -4.45,-1.64 -6.5,-4c-4.94,-9.68 -6.94,-20.01 -6,-31c-0.67,-0.75 -1.5,-1.09 -2.5,-1c0,-0.33 0,-0.67 0,-1c0,-0.33 0,-0.67 0,-1c0.67,0.33 1.33,0.67 2,1c2.51,0.45 4.51,-0.22 6,-2c1.46,-4.82 1.13,-9.66 -1,-14.5c1.76,-3.43 3.93,-6.6 6.5,-9.5c0.33,-2.67 0.67,-5.33 1,-8c4.63,-2.59 6.63,-6.59 6,-12c2.83,-2.83 5.67,-5.67 8.5,-8.5c2.33,-0.33 4.67,-0.67 7,-1c3,-3.5 6,-7 9,-10.5c1.58,-0.8 3.24,-1.3 5,-1.5c2.39,-3.29 4.89,-6.46 7.5,-9.5c1.71,0.58 2.88,1.74 3.5,3.5c0.95,0.48 1.95,0.65 3,0.5z" fill="#679d2f" id="svg_132"/>
  </g>
  <g id="svg_133">
   <path d="m249.5,162.5c-0.77,-0.76 -1.27,-1.76 -1.5,-3c-2.03,3.21 -3.87,6.54 -5.5,10c0.63,1.76 1.63,3.26 3,4.5c-3.54,1.61 -6.54,3.94 -9,7c-2.62,0.82 -5.28,1.32 -8,1.5c-0.47,-3.31 -2.31,-5.65 -5.5,-7c-1.6,2.75 -2.44,5.75 -2.5,9c-2.74,0.42 -4.08,-0.74 -4,-3.5c1.03,-8.49 1.03,-16.99 0,-25.5c-2.89,0.28 -4.39,-1.05 -4.5,-4c-0.5,-3.03 -0.33,-6.03 0.5,-9c-2.32,0.67 -4.65,0.83 -7,0.5c-0.57,-1.21 -1.24,-2.37 -2,-3.5c-2.21,-0.61 -4.38,-1.27 -6.5,-2c-0.37,-0.92 -0.87,-1.75 -1.5,-2.5c1.53,-1.89 3.53,-2.89 6,-3c1.33,-0.67 1.33,-1.33 0,-2c-2.98,-0.01 -5.98,0.33 -9,1c-0.92,0.28 -1.58,0.78 -2,1.5c-1.67,0 -3.33,0 -5,0c0,-0.33 0,-0.67 0,-1c1.37,0.16 2.71,-0.01 4,-0.5c-0.75,-0.67 -1.09,-1.5 -1,-2.5c1.27,-8.66 -0.06,-17 -4,-25c4.07,-4.07 8.07,-3.9 12,0.5c3.38,0.45 6.71,1.12 10,2c3.58,2.75 7.58,4.75 12,6c4.81,5.14 9.98,9.98 15.5,14.5c2.24,4.25 5.24,7.91 9,11c0.31,4.62 2.31,8.28 6,11c0.5,4.66 0.67,9.32 0.5,14z" fill="#5b8d29" id="svg_134"/>
  </g>
  <g id="svg_135">
   <path d="m179.5,104.5c1,0 2,0 3,0c0.89,7.98 1.55,15.98 2,24c1.33,0 2.67,0 4,0c-0.09,1 0.25,1.83 1,2.5c-1.29,0.49 -2.63,0.66 -4,0.5c-1.37,0.16 -2.71,-0.01 -4,-0.5c2.67,-1 2.67,-2 0,-3c1.02,-0.52 1.68,-1.35 2,-2.5c-0.38,-7.23 -1.71,-14.23 -4,-21z" fill="#61952b" id="svg_136"/>
  </g>
  <g id="svg_137">
   <path d="m158.5,102.5c1.7,6.3 -0.64,8.64 -7,7c0.63,-0.92 0.96,-1.92 1,-3c1.35,-2.24 3.35,-3.57 6,-4z" fill="#679b3c" id="svg_138"/>
  </g>
  <g id="svg_139">
   <path d="m188.5,46.5c1.37,2.29 3.37,3.96 6,5c3.54,-0.31 6.88,0.02 10,1c-2.36,-0.16 -4.69,0 -7,0.5c-1.47,0.71 -2.14,1.88 -2,3.5c-0.87,5.27 -1.53,10.94 -2,17c-0.1,3.5 0.57,6.83 2,10c-0.85,1.91 -1.18,3.91 -1,6c-2.87,2.48 -5.87,4.98 -9,7.5c-4.07,0.51 -8.07,1.35 -12,2.5c-0.67,1 -1.33,2 -2,3c0.69,1.02 1.36,2.02 2,3c-1.05,0.15 -2.05,-0.02 -3,-0.5c-0.62,-1.76 -1.79,-2.92 -3.5,-3.5c-2.61,3.04 -5.11,6.21 -7.5,9.5c-1.76,0.2 -3.42,0.7 -5,1.5c-3,3.5 -6,7 -9,10.5c-2.33,0.33 -4.67,0.67 -7,1c-2.83,2.83 -5.67,5.67 -8.5,8.5c0.63,5.41 -1.37,9.41 -6,12c-0.33,2.67 -0.67,5.33 -1,8c-2.57,2.9 -4.74,6.07 -6.5,9.5c2.13,4.84 2.46,9.68 1,14.5c0.17,-3.35 0,-6.68 -0.5,-10c-2.04,-0.92 -4.21,-1.26 -6.5,-1c0,-0.67 0,-1.33 0,-2c1.52,-0.01 2.68,-0.68 3.5,-2c0.84,-5.01 1.67,-10.01 2.5,-15c1.89,0.2 3.39,-0.46 4.5,-2c0.33,-2.67 0.67,-5.33 1,-8c1.42,-0.96 2.92,-1.79 4.5,-2.5c8.82,-9.22 17.48,-18.39 26,-27.5c-0.04,1.08 -0.37,2.08 -1,3c6.36,1.64 8.7,-0.7 7,-7c9.68,-3.54 19.52,-6.54 29.5,-9c1.02,-2.2 1.52,-4.54 1.5,-7c-0.93,-8.15 -0.93,-16.32 0,-24.5c-0.17,-3.5 -0.33,-7 -0.5,-10.5c-0.28,-0.92 -0.78,-1.58 -1.5,-2c-0.24,-1.29 0.1,-2.29 1,-3z" fill="#689d34" id="svg_140"/>
  </g>
  <g id="svg_141">
   <path d="m187.5,49.5c0.72,0.42 1.22,1.08 1.5,2c0.17,3.5 0.33,7 0.5,10.5c-0.93,8.18 -0.93,16.35 0,24.5c0.02,2.46 -0.48,4.8 -1.5,7c-9.98,2.46 -19.82,5.46 -29.5,9c-2.65,0.43 -4.65,1.76 -6,4c-8.52,9.11 -17.18,18.28 -26,27.5c-1.58,0.71 -3.08,1.54 -4.5,2.5c-0.33,2.67 -0.67,5.33 -1,8c-1.11,1.54 -2.61,2.2 -4.5,2c-0.83,4.99 -1.66,9.99 -2.5,15c-0.82,1.32 -1.98,1.99 -3.5,2c0.78,-5.62 2.11,-11.12 4,-16.5c3.89,-8.44 8.55,-16.44 14,-24c8.96,-6.62 17.62,-13.62 26,-21c9.44,-4.2 19.1,-7.7 29,-10.5c0.15,-7.27 0.32,-14.61 0.5,-22c1.28,-7 2.44,-13.67 3.5,-20z" fill="#6fa439" id="svg_142"/>
  </g>
  <g id="svg_143">
   <path d="m196.5,94.5c4.16,1.59 8.5,2.75 13,3.5c11.66,3.99 20.66,11.33 27,22c2.5,1.17 5,2.33 7.5,3.5c0.25,3.25 1.25,6.25 3,9c2.33,1 4,2.67 5,5c-0.56,5.06 1.1,9.06 5,12c0.39,13.93 0.56,27.77 0.5,41.5c-3.47,8.94 -7.3,17.78 -11.5,26.5c-0.5,-2.98 -0.66,-5.98 -0.5,-9c1.34,-4.51 3.17,-8.85 5.5,-13c1.41,-15.64 1.74,-31.31 1,-47c-3.4,-8.47 -8.06,-16.13 -14,-23c-5.32,-5.16 -10.49,-10.49 -15.5,-16c-7.47,-3.44 -15.13,-6.61 -23,-9.5c-1.93,-0.9 -3.6,-2.07 -5,-3.5c1,-0.33 1.67,-1 2,-2z" fill="#65992f" id="svg_144"/>
  </g>
  <g id="svg_145">
   <path d="m173.5,46.5c4.81,-0.99 9.81,-1.32 15,-1c0,0.33 0,0.67 0,1c-0.9,0.71 -1.24,1.71 -1,3c-1.06,6.33 -2.22,13 -3.5,20c-0.18,7.39 -0.35,14.73 -0.5,22c-9.9,2.8 -19.56,6.3 -29,10.5c-8.38,7.38 -17.04,14.38 -26,21c-5.45,7.56 -10.11,15.56 -14,24c-1.89,5.38 -3.22,10.88 -4,16.5c0,0.67 0,1.33 0,2c-0.62,0.11 -1.12,0.44 -1.5,1c-0.81,3.86 -0.64,7.52 0.5,11c0,0.33 0,0.67 0,1c-0.67,0.33 -1.33,0.67 -2,1c-0.7,-9.39 0.14,-18.73 2.5,-28c3.96,-9.25 8.46,-18.25 13.5,-27c10.11,-9.55 20.78,-18.38 32,-26.5c5.08,-1.8 10.08,-3.8 15,-6c3,-0.33 6,-0.67 9,-1c0.81,-0.31 1.47,-0.81 2,-1.5c-0.06,-7.89 0.11,-15.89 0.5,-24c0.26,-4.46 1.1,-8.79 2.5,-13c-0.36,-0.68 -0.7,-1.35 -1,-2c1.42,-0.25 2.42,-1.08 3,-2.5c-4.25,-1.19 -8.59,-1.69 -13,-1.5z" fill="#75ab3e" id="svg_146"/>
  </g>
  <g id="svg_147">
   <path d="m176.5,133.5c0.33,0 0.67,0 1,0c3.54,-0.31 6.88,0.02 10,1c-3.35,-0.16 -6.68,0 -10,0.5c-0.75,0.67 -1.09,1.5 -1,2.5c-1.1,1.1 -2.44,1.77 -4,2c0,-0.33 0,-0.67 0,-1c0.8,-2.07 2.13,-3.74 4,-5z" fill="#75a160" id="svg_148"/>
  </g>
  <g id="svg_149">
   <path d="m177.5,133.5c2.45,-0.97 5.12,-1.31 8,-1c1.67,0 3.33,0 5,0c3.28,0.62 4.61,2.62 4,6c-1.75,-1.75 -3.75,-3.09 -6,-4c-0.33,0 -0.67,0 -1,0c-3.12,-0.98 -6.46,-1.31 -10,-1z" fill="#63923c" id="svg_150"/>
  </g>
  <g id="svg_151">
   <path d="m176.5,133.5c-1.87,1.26 -3.2,2.93 -4,5c-1,0 -2,0 -3,0c0.73,-1.21 1.07,-2.54 1,-4c2,-0.33 4,-0.67 6,-1z" fill="#649937" id="svg_152"/>
  </g>
  <g id="svg_153">
   <path d="m187.5,134.5c0.33,0 0.67,0 1,0c1.67,2.33 3.67,4.33 6,6c0.33,0.67 0.67,1.33 1,2c-2.25,-0.91 -4.25,-2.25 -6,-4c-0.67,-0.33 -1.33,-0.67 -2,-1c-3.49,-2.55 -7.16,-2.55 -11,0c-0.09,-1 0.25,-1.83 1,-2.5c3.32,-0.5 6.65,-0.66 10,-0.5z" fill="#86a981" id="svg_154"/>
  </g>
  <g id="svg_155">
   <path d="m188.5,134.5c2.25,0.91 4.25,2.25 6,4c0.33,0.67 0.67,1.33 1,2c-0.33,0 -0.67,0 -1,0c-2.33,-1.67 -4.33,-3.67 -6,-6z" fill="#719a59" id="svg_156"/>
  </g>
  <g id="svg_157">
   <path d="m187.5,137.5c-0.67,0 -1.33,0 -2,0c-2,-1.33 -4,-1.33 -6,0c-0.67,0 -1,0.33 -1,1c-0.67,0 -1,0.33 -1,1c-0.33,0 -0.67,0 -1,0c0,-0.67 0,-1.33 0,-2c3.84,-2.55 7.51,-2.55 11,0z" fill="#96b2aa" id="svg_158"/>
  </g>
  <g id="svg_159">
   <path d="m176.5,137.5c0,0.67 0,1.33 0,2c-1.21,0.73 -2.54,1.07 -4,1c-1.33,0 -2.67,0 -4,0c1.07,-0.93 2.4,-1.27 4,-1c1.56,-0.23 2.9,-0.9 4,-2z" fill="#8db188" id="svg_160"/>
  </g>
  <g id="svg_161">
   <path d="m179.5,137.5c2,-1.33 4,-1.33 6,0c0,0.67 0,1.33 0,2c-0.67,0.33 -1.33,0.67 -2,1c0,-1 0,-2 0,-3c-1.33,0 -2.67,0 -4,0z" fill="#b1c2d8" id="svg_162"/>
  </g>
  <g id="svg_163">
   <path d="m179.5,137.5c1.33,0 2.67,0 4,0c0,1 0,2 0,3c-2.28,0.42 -3.95,-0.24 -5,-2c0,-0.67 0.33,-1 1,-1z" fill="#b8c6ec" id="svg_164"/>
  </g>
  <g id="svg_165">
   <path d="m178.5,138.5c1.05,1.76 2.72,2.42 5,2c0.67,-0.33 1.33,-0.67 2,-1c0.07,1.53 -0.59,2.53 -2,3c-0.67,0 -1.33,0 -2,0c-1.33,0 -2.67,0 -4,0c0,-0.67 0,-1.33 0,-2c0,-0.33 0,-0.67 0,-1c0,-0.67 0.33,-1 1,-1z" fill="#c8d6ee" id="svg_166"/>
  </g>
  <g id="svg_167">
   <path d="m169.5,138.5c1,0 2,0 3,0c0,0.33 0,0.67 0,1c-1.6,-0.27 -2.93,0.07 -4,1c-0.33,0 -0.67,0 -1,0c-1.56,0.23 -2.9,0.9 -4,2c0.99,-2.59 2.99,-3.92 6,-4z" fill="#79a852" id="svg_168"/>
  </g>
  <g id="svg_169">
   <path d="m176.5,139.5c0.33,0 0.67,0 1,0c0,0.33 0,0.67 0,1c-2.75,1.63 -5.75,2.29 -9,2c1.33,-0.67 2.67,-1.33 4,-2c1.46,0.07 2.79,-0.27 4,-1z" fill="#b7d0bf" id="svg_170"/>
  </g>
  <g id="svg_171">
   <path d="m187.5,137.5c0.67,0.33 1.33,0.67 2,1c0.57,1.91 1.57,3.58 3,5c-3.81,-0.15 -5.48,-2.15 -5,-6z" fill="#b0c5c2" id="svg_172"/>
  </g>
  <g id="svg_173">
   <path d="m194.5,138.5c4.22,0.7 7.55,2.87 10,6.5c1,0.33 2,0.67 3,1c1.79,4.04 3.96,7.87 6.5,11.5c1.54,8.6 1.88,17.27 1,26c-1.15,1.14 -2.31,2.14 -3.5,3c-1.41,0.47 -2.07,1.47 -2,3c-0.33,0 -0.67,0 -1,0c0.13,-2.97 1.63,-4.97 4.5,-6c0.79,-1.25 1.29,-2.58 1.5,-4c1.83,-10.32 -0.5,-19.32 -7,-27c0,-0.33 0,-0.67 0,-1c-2.67,-4.67 -6.33,-8.33 -11,-11c-0.33,0 -0.67,0 -1,0c-0.33,-0.67 -0.67,-1.33 -1,-2z" fill="#6d984a" id="svg_174"/>
  </g>
  <g id="svg_175">
   <path d="m167.5,140.5c-1.43,1.42 -2.43,3.09 -3,5c-0.33,0 -0.67,0 -1,0c0,-0.67 0,-1.33 0,-2c0,-0.33 0,-0.67 0,-1c1.1,-1.1 2.44,-1.77 4,-2z" fill="#91b77b" id="svg_176"/>
  </g>
  <g id="svg_177">
   <path d="m177.5,140.5c0,0.67 0,1.33 0,2c0,0.33 0,0.67 0,1c-3.33,0 -6.67,0 -10,0c0,-0.67 0.33,-1 1,-1c3.25,0.29 6.25,-0.37 9,-2z" fill="#d2e3e5" id="svg_178"/>
  </g>
  <g id="svg_179">
   <path d="m194.5,140.5c0.33,0 0.67,0 1,0c0.33,0 0.67,0 1,0c3.33,4 7,7.67 11,11c0,0.33 0,0.67 0,1c0.54,1.62 0.87,3.28 1,5c-1.16,-3.84 -3.49,-6.84 -7,-9c-1.67,-2.33 -3.67,-4.33 -6,-6c-0.33,-0.67 -0.67,-1.33 -1,-2z" fill="#90b183" id="svg_180"/>
  </g>
  <g id="svg_181">
   <path d="m196.5,140.5c4.67,2.67 8.33,6.33 11,11c-4,-3.33 -7.67,-7 -11,-11z" fill="#7fa667" id="svg_182"/>
  </g>
  <g id="svg_183">
   <path d="m167.5,143.5c3.33,0 6.67,0 10,0c1.22,0.53 2.39,1.19 3.5,2c0.17,31.07 0.67,62.07 1.5,93c0,1.33 0,2.67 0,4c-5.01,0.17 -10.01,0 -15,-0.5c-0.58,-1.42 -1.58,-2.25 -3,-2.5c-3.22,-1.8 -6.89,-2.8 -11,-3c0,-0.33 0,-0.67 0,-1c0,-1.67 0,-3.33 0,-5c-3.73,0.32 -7.39,-0.01 -11,-1c-0.53,-3.48 -2.53,-5.15 -6,-5c-1.8,-2 -3.8,-3.66 -6,-5c-0.95,-1.42 -1.28,-3.09 -1,-5c0.33,0 0.67,0 1,0c0,0.67 0.33,1 1,1c1.1,1.1 2.43,1.26 4,0.5c0.74,-1.81 1.41,-3.65 2,-5.5c2.75,-0.97 4.75,-2.81 6,-5.5c2.98,-0.7 5.98,-1.2 9,-1.5c0.96,0.45 1.79,1.12 2.5,2c1.93,-2.03 3.43,-4.36 4.5,-7c2.21,-0.61 4.38,-1.27 6.5,-2c0.67,-2.33 0.67,-4.67 0,-7c-1.36,-0.88 -2.86,-1.21 -4.5,-1c-0.33,0 -0.67,0 -1,0c0.45,-2.51 -0.22,-4.51 -2,-6c0,-0.33 0,-0.67 0,-1c1.53,-2.83 0.53,-4.16 -3,-4c0,-0.67 -0.33,-1 -1,-1c0,-5.67 0,-11.33 0,-17c0.33,0 0.67,0 1,0c-0.16,1.37 0.01,2.71 0.5,4c1.07,-1.6 2.57,-2.6 4.5,-3c0.98,-2.93 1.32,-5.93 1,-9c0,-0.67 0,-1.33 0,-2c3,-1 5,-3 6,-6z" fill="#e8f4fc" id="svg_184"/>
  </g>
  <g id="svg_185">
   <path d="m181.5,142.5c0.67,0 1.33,0 2,0c0.65,1.31 1.32,2.64 2,4c-0.99,29.96 -1.32,59.96 -1,90c0.54,1.62 0.87,3.28 1,5c3.21,-0.31 6.21,0.02 9,1c-4,0 -8,0 -12,0c0,-1.33 0,-2.67 0,-4c-0.33,-30.44 0.01,-61.11 1,-92c-0.25,-1.57 -0.92,-2.91 -2,-4z" fill="#d6e3f0" id="svg_186"/>
  </g>
  <g id="svg_187">
   <path d="m192.5,143.5c3.14,0.47 5.48,2.14 7,5c-2.62,-1.29 -4.95,-2.95 -7,-5z" fill="#b2c9bb" id="svg_188"/>
  </g>
  <g id="svg_189">
   <path d="m163.5,143.5c0,0.67 0,1.33 0,2c-0.67,0.33 -1.33,0.67 -2,1c-1.56,0.23 -2.9,0.9 -4,2c-0.09,-1 0.25,-1.83 1,-2.5c1.95,-0.37 3.62,-1.2 5,-2.5z" fill="#7baa53" id="svg_190"/>
  </g>
  <g id="svg_191">
   <path d="m189.5,138.5c1.75,1.75 3.75,3.09 6,4c2.33,1.67 4.33,3.67 6,6c-0.67,0 -1.33,0 -2,0c-1.52,-2.86 -3.86,-4.53 -7,-5c-1.43,-1.42 -2.43,-3.09 -3,-5z" fill="#a0bca0" id="svg_192"/>
  </g>
  <g id="svg_193">
   <path d="m163.5,145.5c0.33,0 0.67,0 1,0c-0.47,1.41 -1.47,2.07 -3,2c0,-0.33 0,-0.67 0,-1c0.67,-0.33 1.33,-0.67 2,-1z" fill="#a6c59c" id="svg_194"/>
  </g>
  <g id="svg_195">
   <path d="m177.5,143.5c0,-0.33 0,-0.67 0,-1c1.33,0 2.67,0 4,0c1.08,1.09 1.75,2.43 2,4c-0.99,30.89 -1.33,61.56 -1,92c-0.83,-30.93 -1.33,-61.93 -1.5,-93c-1.11,-0.81 -2.28,-1.47 -3.5,-2z" fill="#dfecf6" id="svg_196"/>
  </g>
  <g id="svg_197">
   <path d="m185.5,139.5c3.25,4.4 7.42,8.06 12.5,11c0.33,2 0.67,4 1,6c4.37,3.92 6.54,8.92 6.5,15c-0.5,2.32 -0.83,4.65 -1,7c-1.58,2.08 -3.41,4.08 -5.5,6c-2.64,8 -0.14,13.5 7.5,16.5c2.12,0.56 4.12,1.39 6,2.5c0.68,-0.36 1.35,-0.7 2,-1c2.97,1.33 5.97,2.66 9,4c0.33,0 0.67,0 1,0c-0.17,1.32 0.16,2.49 1,3.5c3.19,1.87 6.35,3.7 9.5,5.5c0.48,0.95 0.65,1.95 0.5,3c-3.33,0 -5,1.67 -5,5c0,0.67 -0.33,1 -1,1c0,-2 0,-4 0,-6c-4.79,-0.64 -6.46,1.19 -5,5.5c1.29,0.49 2.63,0.66 4,0.5c-0.67,0.67 -1.33,1.33 -2,2c-1.4,0.6 -2.4,1.6 -3,3c0,-1.67 0,-3.33 0,-5c-3.76,-0.43 -7.26,0.24 -10.5,2c-0.48,0.95 -0.65,1.95 -0.5,3c2.24,-0.29 4.24,0.04 6,1c-1.7,-0.16 -3.37,0.01 -5,0.5c-0.75,0.67 -1.09,1.5 -1,2.5c0,0.67 0,1.33 0,2c-0.33,0 -0.67,0 -1,0c0.03,-4.71 -2.3,-6.21 -7,-4.5c-1.79,0.2 -3.12,1.03 -4,2.5c1.78,1.48 3.78,2.48 6,3c-4.43,-0.49 -6.76,1.51 -7,6c0,0.33 0,0.67 0,1c-5.67,0 -11.33,0 -17,0c0,-0.33 0,-0.67 0,-1c4,0 8,0 12,0c1.33,0 2.67,0 4,0c0,-1.67 0,-3.33 0,-5c-4.76,0.27 -9.43,-0.06 -14,-1c-0.32,-30.04 0.01,-60.04 1,-90c-0.68,-1.36 -1.35,-2.69 -2,-4c1.41,-0.47 2.07,-1.47 2,-3z" fill="#ccdae8" id="svg_198"/>
  </g>
  <g id="svg_199">
   <path d="m167.5,140.5c0.33,0 0.67,0 1,0c1.33,0 2.67,0 4,0c-1.33,0.67 -2.67,1.33 -4,2c-0.67,0 -1,0.33 -1,1c-1,3 -3,5 -6,6c-1.41,0.47 -2.07,1.47 -2,3c-0.89,0.61 -1.89,0.94 -3,1c-0.33,0 -0.67,0 -1,0c0,-0.33 0,-0.67 0,-1c2.2,-1.34 4.2,-3 6,-5c1.53,0.07 2.53,-0.59 3,-2c0.57,-1.91 1.57,-3.58 3,-5z" fill="#b4ceb5" id="svg_200"/>
  </g>
  <g id="svg_201">
   <path d="m161.5,146.5c0,0.33 0,0.67 0,1c-1.8,2 -3.8,3.66 -6,5c0,-0.33 0,-0.67 0,-1c1.41,-0.47 2.07,-1.47 2,-3c1.1,-1.1 2.44,-1.77 4,-2z" fill="#8db573" id="svg_202"/>
  </g>
  <g id="svg_203">
   <path d="m161.5,149.5c0,0.67 0,1.33 0,2c-0.67,0.33 -1.33,0.67 -2,1c-0.07,-1.53 0.59,-2.53 2,-3z" fill="#cfe1dd" id="svg_204"/>
  </g>
  <g id="svg_205">
   <path d="m185.5,137.5c0.67,0 1.33,0 2,0c-0.48,3.85 1.19,5.85 5,6c2.05,2.05 4.38,3.71 7,5c1.54,4.21 3.54,8.21 6,12c0.51,4.01 1.51,7.85 3,11.5c0.18,2.8 -0.82,4.97 -3,6.5c-0.33,0 -0.67,0 -1,0c0.17,-2.35 0.5,-4.68 1,-7c0.04,-6.08 -2.13,-11.08 -6.5,-15c-0.33,-2 -0.67,-4 -1,-6c-5.08,-2.94 -9.25,-6.6 -12.5,-11c0,-0.67 0,-1.33 0,-2z" fill="#c6d6de" id="svg_206"/>
  </g>
  <g id="svg_207">
   <path d="m161.5,151.5c0.32,3.07 -0.02,6.07 -1,9c-1.93,0.4 -3.43,1.4 -4.5,3c-0.49,-1.29 -0.66,-2.63 -0.5,-4c2.31,-0.87 2.97,-2.21 2,-4c1.05,-0.72 1.72,-1.72 2,-3c0.67,-0.33 1.33,-0.67 2,-1z" fill="#e0ecfb" id="svg_208"/>
  </g>
  <g id="svg_209">
   <path d="m159.5,152.5c-0.28,1.28 -0.95,2.28 -2,3c-0.67,0 -1.33,0 -2,0c0.33,-0.67 0.67,-1.33 1,-2c1.11,-0.06 2.11,-0.39 3,-1z" fill="#bbcfd2" id="svg_210"/>
  </g>
  <g id="svg_211">
   <path d="m207.5,152.5c6.5,7.68 8.83,16.68 7,27c-0.67,0.33 -1.33,0.67 -2,1c0,-0.67 0,-1.33 0,-2c2.13,-7.73 0.8,-14.73 -4,-21c-0.13,-1.72 -0.46,-3.38 -1,-5z" fill="#82a76c" id="svg_212"/>
  </g>
  <g id="svg_213">
   <path d="m155.5,152.5c0,0.33 0,0.67 0,1c-2.47,1.19 -3.47,3.19 -3,6c0,7.33 0,14.67 0,22c-0.33,0 -0.67,0 -1,0c-0.17,-9.01 0,-18.01 0.5,-27c0.82,-1.32 1.98,-1.99 3.5,-2z" fill="#8bb278" id="svg_214"/>
  </g>
  <g id="svg_215">
   <path d="m155.5,155.5c0.67,0 1.33,0 2,0c0.97,1.79 0.31,3.13 -2,4c-0.33,0 -0.67,0 -1,0c-0.27,-1.6 0.07,-2.93 1,-4z" fill="#c5d3f3" id="svg_216"/>
  </g>
  <g id="svg_217">
   <path d="m155.5,153.5c0.33,0 0.67,0 1,0c-0.33,0.67 -0.67,1.33 -1,2c-0.93,1.07 -1.27,2.4 -1,4c0,5.67 0,11.33 0,17c0,1.67 0,3.33 0,5c-0.67,-7.33 -1.33,-14.67 -2,-22c-0.47,-2.81 0.53,-4.81 3,-6z" fill="#a7c3b2" id="svg_218"/>
  </g>
  <g id="svg_219">
   <path d="m199.5,148.5c0.67,0 1.33,0 2,0c3.28,4.47 5.61,9.47 7,15c0,0.67 0,1.33 0,2c-1.19,-1.57 -2.19,-3.24 -3,-5c-2.46,-3.79 -4.46,-7.79 -6,-12z" fill="#b8ccc5" id="svg_220"/>
  </g>
  <g id="svg_221" transform="matrix(1 0 0 1 0 0)">
   <path d="m249.5,162.5c-0.11,10.83 -0.27,21.49 -0.5,32c-1.13,1.64 -2.63,2.64 -4.5,3c-1.44,-3.64 -1.11,-7.14 1,-10.5c-0.83,-2.5 -2.33,-3 -4.5,-1.5c-2.81,8.61 -7.14,9.28 -13,2c-3.32,1.47 -6.82,2.14 -10.5,2c-1.91,-1.3 -3.91,-2.3 -6,-3c1.19,-0.86 2.35,-1.86 3.5,-3c0.88,-8.73 0.54,-17.4 -1,-26c-2.54,-3.63 -4.71,-7.46 -6.5,-11.5c-1,-0.33 -2,-0.67 -3,-1c-2.45,-3.63 -5.78,-5.8 -10,-6.5c0.61,-3.38 -0.72,-5.38 -4,-6c0.42,-0.72 1.08,-1.22 2,-1.5c3.02,-0.67 6.02,-1.01 9,-1c1.33,0.67 1.33,1.33 0,2c-2.47,0.11 -4.47,1.11 -6,3c0.63,0.75 1.13,1.58 1.5,2.5c2.12,0.73 4.29,1.39 6.5,2c0.76,1.13 1.43,2.29 2,3.5c2.35,0.33 4.68,0.17 7,-0.5c-0.83,2.97 -1,5.97 -0.5,9c0.11,2.95 1.61,4.28 4.5,4c1.03,8.51 1.03,17.01 0,25.5c-0.08,2.76 1.26,3.92 4,3.5c0.06,-3.25 0.9,-6.25 2.5,-9c3.19,1.35 5.03,3.69 5.5,7c2.72,-0.18 5.38,-0.68 8,-1.5c2.46,-3.06 5.46,-5.39 9,-7c-1.37,-1.24 -2.37,-2.74 -3,-4.5c1.63,-3.46 3.47,-6.79 5.5,-10c0.23,1.24 0.73,2.24 1.5,3z" fill="#5c8d2e" id="svg_222"/>
  </g>
  <g id="svg_223">
   <path d="m146.5,152.5c1,-0.09 1.83,0.25 2.5,1c0.67,10 0.67,20 0,30c-1.01,0.84 -2.18,1.17 -3.5,1c-1.66,-10.79 -1.33,-21.46 1,-32z" fill="#629a26" id="svg_224"/>
  </g>
  <g id="svg_225">
   <path d="m155.5,151.5c0,0.33 0,0.67 0,1c-1.52,0.01 -2.68,0.68 -3.5,2c-0.5,8.99 -0.67,17.99 -0.5,27c0.23,1.56 0.9,2.9 2,4c-1,0.09 -1.83,-0.25 -2.5,-1c-0.67,-10.33 -0.67,-20.67 0,-31c1.11,-1.54 2.61,-2.2 4.5,-2z" fill="#79a851" id="svg_226"/>
  </g>
  <g id="svg_227">
   <path d="m201.5,148.5c3.51,2.16 5.84,5.16 7,9c4.8,6.27 6.13,13.27 4,21c-1.33,1 -2.67,2 -4,3c1.13,-1.81 1.8,-3.81 2,-6c1.13,-2.47 1.3,-5.13 0.5,-8c-0.2,-1.82 -1.03,-3.15 -2.5,-4c-1.39,-5.53 -3.72,-10.53 -7,-15z" fill="#a0bc9d" id="svg_228"/>
  </g>
  <g id="svg_229">
   <path d="m110.5,165.5c2.29,-0.26 4.46,0.08 6.5,1c0.5,3.32 0.67,6.65 0.5,10c-1.49,1.78 -3.49,2.45 -6,2c0,-0.67 0,-1.33 0,-2c0.88,0.13 1.54,-0.2 2,-1c1.97,-2.89 2.3,-5.89 1,-9c-1.46,-0.07 -2.79,0.27 -4,1c0,-0.67 0,-1.33 0,-2z" fill="#669a38" id="svg_230"/>
  </g>
  <g id="svg_231">
   <path d="m110.5,165.5c0,0.67 0,1.33 0,2c0.2,3.02 0.54,6.02 1,9c0,0.67 0,1.33 0,2c-0.67,-0.33 -1.33,-0.67 -2,-1c-1.14,-3.48 -1.31,-7.14 -0.5,-11c0.38,-0.56 0.88,-0.89 1.5,-1z" fill="#6fa341" id="svg_232"/>
  </g>
  <g id="svg_233">
   <path d="m208.5,163.5c1.47,0.85 2.3,2.18 2.5,4c0.8,2.87 0.63,5.53 -0.5,8c0.34,-3.62 -0.32,-6.95 -2,-10c0,-0.67 0,-1.33 0,-2z" fill="#b0c7b9" id="svg_234"/>
  </g>
  <g id="svg_235">
   <path d="m111.5,176.5c-0.46,-2.98 -0.8,-5.98 -1,-9c1.21,-0.73 2.54,-1.07 4,-1c1.3,3.11 0.97,6.11 -1,9c-0.46,0.8 -1.12,1.13 -2,1z" fill="#659842" id="svg_236"/>
  </g>
  <g id="svg_237">
   <path d="m109.5,178.5c0,0.33 0,0.67 0,1c-0.48,8.24 0.02,16.57 1.5,25c3.27,5.56 6.77,10.9 10.5,16c-0.33,0 -0.67,0 -1,0c-1.08,0.04 -2.08,0.37 -3,1c-3.97,-5.26 -7.47,-10.93 -10.5,-17c-0.46,-8.34 -0.29,-16.68 0.5,-25c0.67,-0.33 1.33,-0.67 2,-1z" fill="#75ac3b" id="svg_238"/>
  </g>
  <g id="svg_239">
   <path d="m155.5,177.5c3.53,-0.16 4.53,1.17 3,4c-1,0 -2,0 -3,0c0,-1.33 0,-2.67 0,-4z" fill="#d6e2fb" id="svg_240"/>
  </g>
  <g id="svg_241">
   <path d="m205.5,160.5c0.81,1.76 1.81,3.43 3,5c1.68,3.05 2.34,6.38 2,10c-1.67,2 -3.33,4 -5,6c0,-1 0,-2 0,-3c2.18,-1.53 3.18,-3.7 3,-6.5c-1.49,-3.65 -2.49,-7.49 -3,-11.5z" fill="#bdcfce" id="svg_242"/>
  </g>
  <g id="svg_243" transform="matrix(1 0 0 1 0 0)">
   <path d="m109.5,179.5c1,-0.09 1.83,0.25 2.5,1c-0.94,10.99 1.06,21.32 6,31c2.05,2.36 4.22,3.69 6.5,4c0.24,2.53 -0.76,4.2 -3,5c-3.73,-5.1 -7.23,-10.44 -10.5,-16c-1.48,-8.43 -1.98,-16.76 -1.5,-25z" fill="#6ea537" id="svg_244"/>
  </g>
  <g id="svg_245">
   <path d="m152.5,159.5c0.67,7.33 1.33,14.67 2,22c0,0.67 0.33,1 1,1c0.67,1 1.33,2 2,3c-2.25,-0.58 -3.91,-1.91 -5,-4c0,-7.33 0,-14.67 0,-22z" fill="#9ebe9a" id="svg_246"/>
  </g>
  <g id="svg_247">
   <path d="m154.5,176.5c0.67,0 1,0.33 1,1c0,1.33 0,2.67 0,4c1,0 2,0 3,0c0,0.33 0,0.67 0,1c-0.33,0 -0.67,0 -1,0c-0.67,0 -1.33,0 -2,0c-0.67,0 -1,-0.33 -1,-1c0,-1.67 0,-3.33 0,-5z" fill="#bdcfe0" id="svg_248"/>
  </g>
  <g id="svg_249">
   <path d="m155.5,182.5c0.67,0 1.33,0 2,0c0.67,1 1.33,2 2,3c-0.33,0 -0.67,0 -1,0c-0.33,0 -0.67,0 -1,0c-0.67,-1 -1.33,-2 -2,-3z" fill="#acc7b6" id="svg_250"/>
  </g>
  <g id="svg_251">
   <path d="m157.5,182.5c0.33,0 0.67,0 1,0c1.78,1.49 2.45,3.49 2,6c-0.33,0 -0.67,0 -1,0c0,-1 0,-2 0,-3c-0.67,-1 -1.33,-2 -2,-3z" fill="#caded7" id="svg_252"/>
  </g>
  <g id="svg_253">
   <path d="m214.5,179.5c-0.21,1.42 -0.71,2.75 -1.5,4c-2.87,1.03 -4.37,3.03 -4.5,6c0,1 0,2 0,3c-1.13,-2.13 -1.3,-4.46 -0.5,-7c2.2,-1.15 3.7,-2.82 4.5,-5c0.67,-0.33 1.33,-0.67 2,-1z" fill="#729b57" id="svg_254"/>
  </g>
  <g id="svg_255">
   <path d="m244.5,197.5c-0.42,5.36 -1.75,10.36 -4,15c0,-2.33 0,-4.67 0,-7c-4.9,0.6 -7.57,-1.57 -8,-6.5c-5.72,-2.25 -10.72,-5.42 -15,-9.5c3.68,0.14 7.18,-0.53 10.5,-2c5.86,7.28 10.19,6.61 13,-2c2.17,-1.5 3.67,-1 4.5,1.5c-2.11,3.36 -2.44,6.86 -1,10.5z" fill="#5b8d29" id="svg_256"/>
  </g>
  <g id="svg_257">
   <path d="m212.5,178.5c0,0.67 0,1.33 0,2c-2.41,1.29 -4.57,2.96 -6.5,5c-0.6,2.72 -0.44,5.39 0.5,8c-2.59,-1.54 -3.59,-3.87 -3,-7c1.33,-2 3,-3.67 5,-5c1.33,-1 2.67,-2 4,-3z" fill="#96b490" id="svg_258"/>
  </g>
  <g id="svg_259">
   <path d="m210.5,175.5c-0.2,2.19 -0.87,4.19 -2,6c-2,1.33 -3.67,3 -5,5c-0.96,1.76 -1.29,3.76 -1,6c-1.13,-2.13 -1.3,-4.46 -0.5,-7c1.38,-1.21 2.54,-2.54 3.5,-4c1.67,-2 3.33,-4 5,-6z" fill="#acc4b4" id="svg_260"/>
  </g>
  <g id="svg_261">
   <path d="m211.5,186.5c2.09,0.7 4.09,1.7 6,3c4.28,4.08 9.28,7.25 15,9.5c0.43,4.93 3.1,7.1 8,6.5c0,2.33 0,4.67 0,7c-0.33,0 -0.67,0 -1,0c0.16,-1.37 -0.01,-2.71 -0.5,-4c-2.7,-1.4 -5.2,-3.06 -7.5,-5c-1,-0.33 -1.67,-1 -2,-2c-1.98,-2.66 -4.65,-4.33 -8,-5c-0.11,-0.62 -0.44,-1.12 -1,-1.5c-3.36,-0.73 -6.7,-1.56 -10,-2.5c-0.63,-0.92 -0.96,-1.92 -1,-3c-0.07,-1.53 0.59,-2.53 2,-3z" fill="#57882e" id="svg_262"/>
  </g>
  <g id="svg_263">
   <path d="m205.5,181.5c-0.96,1.46 -2.12,2.79 -3.5,4c-0.8,2.54 -0.63,4.87 0.5,7c0,0.67 0,1.33 0,2c-0.62,-0.11 -1.12,-0.44 -1.5,-1c-0.67,-3 -0.67,-6 0,-9c1.13,-1.64 2.63,-2.64 4.5,-3z" fill="#b5cac4" id="svg_264"/>
  </g>
  <g id="svg_265">
   <path d="m150.5,188.5c1.67,0 3.33,0 5,0c0,1.67 0,3.33 0,5c-2.97,0.06 -5.64,-0.77 -8,-2.5c1.07,-0.85 2.07,-1.69 3,-2.5z" fill="#609922" id="svg_266"/>
  </g>
  <g id="svg_267">
   <path d="m151.5,181.5c0.33,0 0.67,0 1,0c1.09,2.09 2.75,3.42 5,4c0.33,0 0.67,0 1,0c0.31,3.21 -0.02,6.21 -1,9c0.67,-4.05 -0.66,-7.05 -4,-9c-1.1,-1.1 -1.77,-2.44 -2,-4z" fill="#7ba663" id="svg_268"/>
  </g>
  <g id="svg_269">
   <path d="m160.5,188.5c0.33,0 0.67,0 1,0c-0.17,0.99 0.16,1.66 1,2c0.38,2.2 -0.29,3.87 -2,5c0,-2.33 0,-4.67 0,-7z" fill="#9db6c8" id="svg_270"/>
  </g>
  <g id="svg_271">
   <path d="m208.5,189.5c0.33,0 0.67,0 1,0c0.04,1.08 0.37,2.08 1,3c3.3,0.94 6.64,1.77 10,2.5c0.56,0.38 0.89,0.88 1,1.5c-1.62,-0.54 -3.28,-0.87 -5,-1c-3.45,0.6 -6.11,-0.4 -8,-3c0,-1 0,-2 0,-3z" fill="#638e49" id="svg_272"/>
  </g>
  <g id="svg_273">
   <path d="m157.5,194.5c-0.34,0.84 -1.01,1.17 -2,1c-2.36,-0.16 -4.69,0 -7,0.5c-1.08,1.33 -1.75,2.83 -2,4.5c-0.67,0.33 -1.33,0.67 -2,1c-0.67,0 -1.33,0 -2,0c0.67,-0.67 1.33,-1.33 2,-2c0.72,-1.59 1.72,-3.09 3,-4.5c3.32,-0.5 6.65,-0.66 10,-0.5z" fill="#70a051" id="svg_274"/>
  </g>
  <g id="svg_275">
   <path d="m158.5,185.5c0.33,0 0.67,0 1,0c0,1 0,2 0,3c0.16,2.36 0,4.69 -0.5,7c-1.01,0.84 -2.18,1.17 -3.5,1c0,-0.33 0,-0.67 0,-1c0.99,0.17 1.66,-0.16 2,-1c0.98,-2.79 1.31,-5.79 1,-9z" fill="#94b695" id="svg_276"/>
  </g>
  <g id="svg_277">
   <path d="m162.5,190.5c2.74,0.57 3.58,2.24 2.5,5c-1.36,0.88 -2.86,1.21 -4.5,1c0,-0.33 0,-0.67 0,-1c1.71,-1.13 2.38,-2.8 2,-5z" fill="#bdcfe5" id="svg_278"/>
  </g>
  <g id="svg_279">
   <path d="m204.5,178.5c0.33,0 0.67,0 1,0c0,1 0,2 0,3c-1.87,0.36 -3.37,1.36 -4.5,3c-0.67,3 -0.67,6 0,9c0.38,0.56 0.88,0.89 1.5,1c-0.22,1.18 0.11,2.18 1,3c4,1.23 7.67,2.89 11,5c-0.65,0.3 -1.32,0.64 -2,1c-1.88,-1.11 -3.88,-1.94 -6,-2.5c-7.64,-3 -10.14,-8.5 -7.5,-16.5c2.09,-1.92 3.92,-3.92 5.5,-6z" fill="#c2d3d7" id="svg_280"/>
  </g>
  <g id="svg_281">
   <path d="m212.5,180.5c-0.8,2.18 -2.3,3.85 -4.5,5c-0.8,2.54 -0.63,4.87 0.5,7c1.89,2.6 4.55,3.6 8,3c0,0.33 0,0.67 0,1c-2,0 -4,0 -6,0c-1.9,-0.24 -3.24,-1.24 -4,-3c-0.94,-2.61 -1.1,-5.28 -0.5,-8c1.93,-2.04 4.09,-3.71 6.5,-5z" fill="#7ea270" id="svg_282"/>
  </g>
  <g id="svg_283">
   <path d="m202.5,194.5c3.4,3.03 7.4,4.36 12,4c1.63,3.3 4.3,4.96 8,5c0.61,0.89 0.94,1.89 1,3c-3.03,-1.34 -6.03,-2.67 -9,-4c-3.33,-2.11 -7,-3.77 -11,-5c-0.89,-0.82 -1.22,-1.82 -1,-3z" fill="#b3c8c4" id="svg_284"/>
  </g>
  <g id="svg_285">
   <path d="m203.5,186.5c-0.59,3.13 0.41,5.46 3,7c0.76,1.76 2.1,2.76 4,3c1.33,0.67 2.67,1.33 4,2c-4.6,0.36 -8.6,-0.97 -12,-4c0,-0.67 0,-1.33 0,-2c-0.29,-2.24 0.04,-4.24 1,-6z" fill="#9cb7a0" id="svg_286"/>
  </g>
  <g id="svg_287">
   <path d="m210.5,196.5c2,0 4,0 6,0c2,0.67 3.33,2 4,4c-1.81,-1.13 -3.81,-1.8 -6,-2c-1.33,-0.67 -2.67,-1.33 -4,-2z" fill="#84a485" id="svg_288"/>
  </g>
  <g id="svg_289">
   <path d="m216.5,196.5c0,-0.33 0,-0.67 0,-1c1.72,0.13 3.38,0.46 5,1c0.71,1.53 1.71,2.86 3,4c-1.33,0 -2.67,0 -4,0c-0.67,-2 -2,-3.33 -4,-4z" fill="#658d58" id="svg_290"/>
  </g>
  <g id="svg_291">
   <path d="m221.5,196.5c3.35,0.67 6.02,2.34 8,5c-1.72,-0.13 -3.38,-0.46 -5,-1c-1.29,-1.14 -2.29,-2.47 -3,-4z" fill="#57853b" id="svg_292"/>
  </g>
  <g id="svg_293">
   <path d="m155.5,195.5c0,0.33 0,0.67 0,1c-3.63,-0.36 -6.3,0.97 -8,4c-0.33,0 -0.67,0 -1,0c0.25,-1.67 0.92,-3.17 2,-4.5c2.31,-0.5 4.64,-0.66 7,-0.5z" fill="#76a16c" id="svg_294"/>
  </g>
  <g id="svg_295">
   <path d="m155.5,196.5c-2.62,1.6 -5.29,3.27 -8,5c0,-0.33 0,-0.67 0,-1c1.7,-3.03 4.37,-4.36 8,-4z" fill="#8bad96" id="svg_296"/>
  </g>
  <g id="svg_297">
   <path d="m159.5,188.5c0.33,0 0.67,0 1,0c0,2.33 0,4.67 0,7c0,0.33 0,0.67 0,1c-1.67,0.67 -3.33,1.33 -5,2c-2.25,0.58 -3.91,1.91 -5,4c-1.72,0.13 -3.38,0.46 -5,1c0.33,-1 1,-1.67 2,-2c2.71,-1.73 5.38,-3.4 8,-5c1.32,0.17 2.49,-0.16 3.5,-1c0.5,-2.31 0.66,-4.64 0.5,-7z" fill="#a8c1be" id="svg_298"/>
  </g>
  <g id="svg_299">
   <path d="m155.5,198.5c-1,1.33 -2,2.67 -3,4c-0.67,0 -1.33,0 -2,0c1.09,-2.09 2.75,-3.42 5,-4z" fill="#c1d3e2" id="svg_300"/>
  </g>
  <g id="svg_301">
   <path d="m144.5,199.5c-0.67,0.67 -1.33,1.33 -2,2c-1.53,-0.07 -2.53,0.59 -3,2c-1.11,0.06 -2.11,0.39 -3,1c-0.67,0 -1.33,0 -2,0c0.01,-1.52 0.68,-2.68 2,-3.5c2.62,-0.82 5.28,-1.32 8,-1.5z" fill="#669a3d" id="svg_302"/>
  </g>
  <g id="svg_303">
   <path d="m161.5,188.5c1.64,-0.21 3.14,0.12 4.5,1c0.67,2.33 0.67,4.67 0,7c-2.12,0.73 -4.29,1.39 -6.5,2c-1.07,2.64 -2.57,4.97 -4.5,7c-0.71,-0.88 -1.54,-1.55 -2.5,-2c0,-0.33 0,-0.67 0,-1c1,-1.33 2,-2.67 3,-4c1.67,-0.67 3.33,-1.33 5,-2c1.64,0.21 3.14,-0.12 4.5,-1c1.08,-2.76 0.24,-4.43 -2.5,-5c-0.84,-0.34 -1.17,-1.01 -1,-2z" fill="#ddeaf9" id="svg_304"/>
  </g>
  <g id="svg_305">
   <path d="m214.5,198.5c2.19,0.2 4.19,0.87 6,2c0.67,1 1.33,2 2,3c-3.7,-0.04 -6.37,-1.7 -8,-5z" fill="#9bb4aa" id="svg_306"/>
  </g>
  <g id="svg_307">
   <path d="m220.5,200.5c1.33,0 2.67,0 4,0c0.67,1 1.33,2 2,3c-0.67,0 -1.33,0 -2,0c-0.67,0 -1.33,0 -2,0c-0.67,-1 -1.33,-2 -2,-3z" fill="#7b9e76" id="svg_308"/>
  </g>
  <g id="svg_309">
   <path d="m224.5,200.5c1.62,0.54 3.28,0.87 5,1c0.33,1 1,1.67 2,2c0,0.67 0,1.33 0,2c-0.33,0 -0.67,0 -1,0c-1.1,-1.1 -2.44,-1.77 -4,-2c-0.67,-1 -1.33,-2 -2,-3z" fill="#628c4d" id="svg_310"/>
  </g>
  <g id="svg_311">
   <path d="m142.5,201.5c0.67,0 1.33,0 2,0c-1.58,0.64 -2.91,1.64 -4,3c-0.33,0 -0.67,0 -1,0c0,-0.33 0,-0.67 0,-1c0.47,-1.41 1.47,-2.07 3,-2z" fill="#8ab17b" id="svg_312"/>
  </g>
  <g id="svg_313">
   <path d="m146.5,200.5c0.33,0 0.67,0 1,0c0,0.33 0,0.67 0,1c-1,0.33 -1.67,1 -2,2c-2.01,-0.11 -3.68,0.56 -5,2c0,-0.33 0,-0.67 0,-1c1.09,-1.36 2.42,-2.36 4,-3c0.67,-0.33 1.33,-0.67 2,-1z" fill="#a3c1a6" id="svg_314"/>
  </g>
  <g id="svg_315">
   <path d="m150.5,202.5c0.67,0 1.33,0 2,0c0,0.33 0,0.67 0,1c-3.02,0.3 -6.02,0.8 -9,1.5c-1.25,2.69 -3.25,4.53 -6,5.5c-0.33,0 -0.67,0 -1,0c1.87,-1.26 3.2,-2.93 4,-5c1.32,-1.44 2.99,-2.11 5,-2c1.62,-0.54 3.28,-0.87 5,-1z" fill="#c7d9dc" id="svg_316"/>
  </g>
  <g id="svg_317">
   <path d="m224.5,203.5c0.67,0 1.33,0 2,0c1.09,2.09 2.75,3.42 5,4c2.94,1.12 4.94,3.12 6,6c-1.1,-1.1 -2.44,-1.77 -4,-2c-1.33,-0.67 -2.67,-1.33 -4,-2c-1.67,-2 -3.33,-4 -5,-6z" fill="#87a68b" id="svg_318"/>
  </g>
  <g id="svg_319">
   <path d="m226.5,203.5c1.56,0.23 2.9,0.9 4,2c0.33,0.67 0.67,1.33 1,2c-2.25,-0.58 -3.91,-1.91 -5,-4z" fill="#71956b" id="svg_320"/>
  </g>
  <g id="svg_321">
   <path d="m139.5,203.5c0,0.33 0,0.67 0,1c-1.1,1.1 -2.44,1.77 -4,2c0.33,-0.67 0.67,-1.33 1,-2c0.89,-0.61 1.89,-0.94 3,-1z" fill="#6d9a5d" id="svg_322"/>
  </g>
  <g id="svg_323">
   <path d="m222.5,203.5c0.67,0 1.33,0 2,0c1.67,2 3.33,4 5,6c-2.16,-0.22 -3.83,-1.22 -5,-3c-0.33,0 -0.67,0 -1,0c-0.06,-1.11 -0.39,-2.11 -1,-3z" fill="#a5bcaf" id="svg_324"/>
  </g>
  <g id="svg_325">
   <path d="m140.5,205.5c-0.8,2.07 -2.13,3.74 -4,5c-0.33,0 -0.67,0 -1,0c-0.33,0 -0.67,0 -1,0c0.33,-0.67 0.67,-1.33 1,-2c1.83,-0.75 3.5,-1.75 5,-3z" fill="#a9c4b4" id="svg_326"/>
  </g>
  <g id="svg_327">
   <path d="m139.5,204.5c0.33,0 0.67,0 1,0c0,0.33 0,0.67 0,1c-1.5,1.25 -3.17,2.25 -5,3c-2.25,0.91 -4.25,2.25 -6,4c0.23,-1.56 0.9,-2.9 2,-4c1.5,-0.49 2.83,-1.16 4,-2c1.56,-0.23 2.9,-0.9 4,-2z" fill="#80a77f" id="svg_328"/>
  </g>
  <g id="svg_329">
   <path d="m231.5,203.5c2.3,1.94 4.8,3.6 7.5,5c0.49,1.29 0.66,2.63 0.5,4c-1.38,-3.71 -4.04,-6.04 -8,-7c0,-0.67 0,-1.33 0,-2z" fill="#618e40" id="svg_330"/>
  </g>
  <g id="svg_331">
   <path d="m224.5,206.5c1.17,1.78 2.84,2.78 5,3c1.33,0.67 2.67,1.33 4,2c1,1.33 2,2.67 3,4c0.24,1.29 -0.1,2.29 -1,3c0.15,-1.05 -0.02,-2.05 -0.5,-3c-3.15,-1.8 -6.31,-3.63 -9.5,-5.5c-0.84,-1.01 -1.17,-2.18 -1,-3.5z" fill="#b4c7c7" id="svg_332"/>
  </g>
  <g id="svg_333">
   <path d="m134.5,204.5c0.67,0 1.33,0 2,0c-0.33,0.67 -0.67,1.33 -1,2c-1.17,0.84 -2.5,1.51 -4,2c-3.28,0.62 -4.61,2.62 -4,6c-0.33,0 -0.67,0 -1,0c-0.16,-1.7 0.01,-3.37 0.5,-5c2.74,-1.4 5.24,-3.07 7.5,-5z" fill="#699a4b" id="svg_334"/>
  </g>
  <g id="svg_335">
   <path d="m131.5,208.5c-1.1,1.1 -1.77,2.44 -2,4c-0.84,0.34 -1.17,1.01 -1,2c-0.33,0 -0.67,0 -1,0c-0.61,-3.38 0.72,-5.38 4,-6z" fill="#6c9960" id="svg_336"/>
  </g>
  <g id="svg_337">
   <path d="m230.5,205.5c0.33,0 0.67,0 1,0c3.96,0.96 6.62,3.29 8,7c0.3,2.56 -0.03,4.89 -1,7c0.29,-2.24 -0.04,-4.24 -1,-6c-1.06,-2.88 -3.06,-4.88 -6,-6c-0.33,-0.67 -0.67,-1.33 -1,-2z" fill="#70995d" id="svg_338"/>
  </g>
  <g id="svg_339">
   <path d="m135.5,208.5c-0.33,0.67 -0.67,1.33 -1,2c-1.67,1 -3,2.33 -4,4c-0.33,0 -0.67,0 -1,0c-0.33,0 -0.67,0 -1,0c-0.17,-0.99 0.16,-1.66 1,-2c1.75,-1.75 3.75,-3.09 6,-4z" fill="#8cac9c" id="svg_340"/>
  </g>
  <g id="svg_341">
   <path d="m134.5,210.5c0.33,0 0.67,0 1,0c-1.33,1.67 -2.67,3.33 -4,5c-0.67,0 -1,-0.33 -1,-1c1,-1.67 2.33,-3 4,-4z" fill="#acc3c6" id="svg_342"/>
  </g>
  <g id="svg_343">
   <path d="m233.5,211.5c1.56,0.23 2.9,0.9 4,2c0.17,0.99 -0.16,1.66 -1,2c-1,-1.33 -2,-2.67 -3,-4z" fill="#93aea0" id="svg_344"/>
  </g>
  <g id="svg_345">
   <path d="m135.5,210.5c0.33,0 0.67,0 1,0c0.33,0 0.67,0 1,0c-0.59,1.85 -1.26,3.69 -2,5.5c-1.57,0.76 -2.9,0.6 -4,-0.5c1.33,-1.67 2.67,-3.33 4,-5z" fill="#d9e7f4" id="svg_346"/>
  </g>
  <g id="svg_347">
   <path d="m126.5,214.5c0.33,0 0.67,0 1,0c-0.3,2.24 0.04,4.24 1,6c0,1.33 0,2.67 0,4c-0.62,-0.11 -1.12,-0.44 -1.5,-1c-0.5,-2.98 -0.67,-5.98 -0.5,-9z" fill="#92bc79" id="svg_348"/>
  </g>
  <g id="svg_349">
   <path d="m237.5,213.5c0.96,1.76 1.29,3.76 1,6c-2.79,0.56 -5.13,1.9 -7,4c0.61,-2.28 1.94,-3.94 4,-5c0.9,-0.71 1.24,-1.71 1,-3c0.84,-0.34 1.17,-1.01 1,-2z" fill="#a6c3a3" id="svg_350"/>
  </g>
  <g id="svg_351">
   <path d="m229.5,224.5c-0.33,0 -0.67,0 -1,0c-1.37,0.16 -2.71,-0.01 -4,-0.5c-1.46,-4.31 0.21,-6.14 5,-5.5c0,2 0,4 0,6z" fill="#d1def1" id="svg_352"/>
  </g>
  <g id="svg_353">
   <path d="m235.5,218.5c-2.06,1.06 -3.39,2.72 -4,5c-0.33,0 -0.67,0 -1,0c0,-3.33 1.67,-5 5,-5z" fill="#c1d4d1" id="svg_354"/>
  </g>
  <g id="svg_355">
   <path d="m239.5,212.5c0.33,0 0.67,0 1,0c0,1 0,2 0,3c1.36,5.27 -0.64,7.94 -6,8c1.54,-1.17 2.88,-2.5 4,-4c0.97,-2.11 1.3,-4.44 1,-7z" fill="#72a345" id="svg_356"/>
  </g>
  <g id="svg_357">
   <path d="m284.5,230.5c-1.67,0 -3.33,0 -5,0c-0.17,-3.35 0,-6.68 0.5,-10c1.01,-0.84 2.18,-1.17 3.5,-1c0.44,3.65 0.78,7.32 1,11z" fill="#5f9823" id="svg_358"/>
  </g>
  <g id="svg_359">
   <path d="m130.5,219.5c2.2,1.34 4.2,3 6,5c1.75,1.75 3.09,3.75 4,6c-4.04,-3.04 -7.38,-6.71 -10,-11z" fill="#d3e7d8" id="svg_360"/>
  </g>
  <g id="svg_361">
   <path d="m238.5,219.5c-1.12,1.5 -2.46,2.83 -4,4c-0.67,0 -1,0.33 -1,1c-0.67,0.33 -1.33,0.67 -2,1c0,-0.67 0,-1.33 0,-2c1.87,-2.1 4.21,-3.44 7,-4z" fill="#8cb471" id="svg_362"/>
  </g>
  <g id="svg_363">
   <path d="m83.5,221.5c1,-0.03 1.66,0.47 2,1.5c0.82,2.43 1.16,4.93 1,7.5c-1.32,0.17 -2.49,-0.16 -3.5,-1c-0.17,-2.66 -0.01,-5.32 0.5,-8z" fill="#71ac32" id="svg_364"/>
  </g>
  <g id="svg_365">
   <path d="m126.5,214.5c-0.17,3.02 0,6.02 0.5,9c0.38,0.56 0.88,0.89 1.5,1c2.59,2.99 5.25,5.99 8,9c-2.49,-0.18 -4.49,-1.18 -6,-3c-1.48,-2 -3.31,-3.67 -5.5,-5c-0.17,-3.33 0,-6.66 0.5,-10c0,-0.67 0.33,-1 1,-1z" fill="#81b25b" id="svg_366"/>
  </g>
  <g id="svg_367">
   <path d="m127.5,214.5c0.33,0 0.67,0 1,0c0.33,0 0.67,0 1,0c-0.28,1.91 0.05,3.58 1,5c2.62,4.29 5.96,7.96 10,11c1,0.33 1.67,1 2,2c0,0.33 0,0.67 0,1c-0.33,0 -0.67,0 -1,0c-0.89,-0.61 -1.89,-0.94 -3,-1c0,-0.33 0,-0.67 0,-1c-3.44,-3.77 -6.78,-7.43 -10,-11c-0.96,-1.76 -1.3,-3.76 -1,-6z" fill="#bad7b2" id="svg_368"/>
  </g>
  <g id="svg_369">
   <path d="m128.5,220.5c3.22,3.57 6.56,7.23 10,11c-3.31,-2.31 -6.65,-4.64 -10,-7c0,-1.33 0,-2.67 0,-4z" fill="#a7cb95" id="svg_370"/>
  </g>
  <g id="svg_371">
   <path d="m223.5,229.5c-1.42,0.95 -3.09,1.28 -5,1c-1.76,-0.96 -3.76,-1.29 -6,-1c-0.15,-1.05 0.02,-2.05 0.5,-3c3.24,-1.76 6.74,-2.43 10.5,-2c0,1.67 0,3.33 0,5z" fill="#d2def3" id="svg_372"/>
  </g>
  <g id="svg_373">
   <path d="m230.5,223.5c0.33,0 0.67,0 1,0c0,0.67 0,1.33 0,2c-1.65,0.16 -2.99,0.83 -4,2c-0.33,0 -0.67,0 -1,0c0,-0.33 0,-0.67 0,-1c0.67,-0.67 1.33,-1.33 2,-2c0.33,0 0.67,0 1,0c0.67,0 1,-0.33 1,-1z" fill="#b1cab7" id="svg_374"/>
  </g>
  <g id="svg_375">
   <path d="m233.5,224.5c0.07,1.53 -0.59,2.53 -2,3c0,-0.67 0,-1.33 0,-2c0.67,-0.33 1.33,-0.67 2,-1z" fill="#7fab5a" id="svg_376"/>
  </g>
  <g id="svg_377">
   <path d="m289.5,220.5c-1.48,3.23 -2.48,6.56 -3,10c-0.17,-3.02 0,-6.02 0.5,-9c0.67,-0.75 1.5,-1.09 2.5,-1z" fill="#a9c88a" id="svg_378"/>
  </g>
  <g id="svg_379">
   <path d="m136.5,224.5c3.47,-0.15 5.47,1.52 6,5c3.61,0.99 7.27,1.32 11,1c0,1.67 0,3.33 0,5c-1.5,0.09 -2.5,-0.58 -3,-2c-2.59,-0.98 -5.25,-1.31 -8,-1c-0.33,-1 -1,-1.67 -2,-2c-0.91,-2.25 -2.25,-4.25 -4,-6z" fill="#ddedea" id="svg_380"/>
  </g>
  <g id="svg_381">
   <path d="m231.5,225.5c0,0.67 0,1.33 0,2c-0.33,0 -0.67,0 -1,0c-1.11,0.06 -2.11,0.39 -3,1c0,-0.33 0,-0.67 0,-1c1.01,-1.17 2.35,-1.84 4,-2z" fill="#91b77b" id="svg_382"/>
  </g>
  <g id="svg_383">
   <path d="m76.5,220.5c1,-0.09 1.83,0.25 2.5,1c-0.24,4.55 0.93,8.55 3.5,12c-0.67,0 -1.33,0 -2,0c-0.33,-1 -1,-1.67 -2,-2c0.49,-3.99 -0.18,-7.65 -2,-11z" fill="#c2dba7" id="svg_384"/>
  </g>
  <g id="svg_385">
   <path d="m128.5,224.5c3.35,2.36 6.69,4.69 10,7c0,0.33 0,0.67 0,1c2.75,4.26 6.75,6.26 12,6c0,0.67 0,1.33 0,2c-2.06,-1.43 -4.39,-2.1 -7,-2c-2.62,-1.29 -4.95,-2.95 -7,-5c-2.75,-3.01 -5.41,-6.01 -8,-9z" fill="#92be77" id="svg_386"/>
  </g>
  <g id="svg_387">
   <path d="m289.5,218.5c0.67,0 1.33,0 2,0c-0.33,0.67 -0.67,1.33 -1,2c-0.33,0 -0.67,0 -1,0c-1,-0.09 -1.83,0.25 -2.5,1c-0.5,2.98 -0.67,5.98 -0.5,9c-0.33,1 -1,1.67 -2,2c-0.67,0 -1.33,0 -2,0c0.67,-0.67 1.33,-1.33 2,-2c0.82,-3.14 1.32,-6.47 1.5,-10c1.3,-0.59 2.47,-1.25 3.5,-2z" fill="#8db562" id="svg_388"/>
  </g>
  <g id="svg_389">
   <path d="m124.5,215.5c0.33,0 0.67,0 1,0c-0.5,3.34 -0.67,6.67 -0.5,10c2.19,1.33 4.02,3 5.5,5c0.61,2.28 1.94,3.94 4,5c-1.05,0.15 -2.05,-0.02 -3,-0.5c-3.18,-3.51 -6.67,-6.68 -10.5,-9.5c0.77,-1.68 0.61,-3.35 -0.5,-5c0.33,0 0.67,0 1,0c2.24,-0.8 3.24,-2.47 3,-5z" fill="#79af48" id="svg_390"/>
  </g>
  <g id="svg_391">
   <path d="m230.5,227.5c-1.43,1.42 -2.43,3.09 -3,5c-0.89,0.61 -1.89,0.94 -3,1c1.19,-1.61 2.19,-3.28 3,-5c0.89,-0.61 1.89,-0.94 3,-1z" fill="#80ac5c" id="svg_392"/>
  </g>
  <g id="svg_393">
   <path d="m226.5,226.5c0,0.33 0,0.67 0,1c-0.64,1.58 -1.64,2.91 -3,4c-3.99,-0.49 -7.65,0.18 -11,2c-0.09,-1 0.25,-1.83 1,-2.5c1.63,-0.49 3.3,-0.66 5,-0.5c1.91,0.28 3.58,-0.05 5,-1c0.6,-1.4 1.6,-2.4 3,-3z" fill="#bfd2d0" id="svg_394"/>
  </g>
  <g id="svg_395">
   <path d="m211.5,235.5c-1.42,0.95 -3.09,1.28 -5,1c-2.22,-0.52 -4.22,-1.52 -6,-3c0.88,-1.47 2.21,-2.3 4,-2.5c4.7,-1.71 7.03,-0.21 7,4.5z" fill="#d2def3" id="svg_396"/>
  </g>
  <g id="svg_397">
   <path d="m226.5,227.5c0.33,0 0.67,0 1,0c0,0.33 0,0.67 0,1c-0.81,1.72 -1.81,3.39 -3,5c-4.25,-0.69 -7.92,0.31 -11,3c0.01,-1.52 0.68,-2.68 2,-3.5c2.87,-0.18 5.53,-0.68 8,-1.5c1.36,-1.09 2.36,-2.42 3,-4z" fill="#99bb8a" id="svg_398"/>
  </g>
  <g id="svg_399">
   <path d="m77.5,226.5c-0.28,1.91 0.05,3.58 1,5c1,0.33 1.67,1 2,2c0,0.33 0,0.67 0,1c-1.32,0.17 -2.49,-0.16 -3.5,-1c-0.8,-2.54 -0.63,-4.87 0.5,-7z" fill="#f0f6ea" id="svg_400"/>
  </g>
  <g id="svg_401">
   <path d="m223.5,231.5c-2.47,0.82 -5.13,1.32 -8,1.5c-1.32,0.82 -1.99,1.98 -2,3.5c0,0.33 0,0.67 0,1c-0.33,0 -0.67,0 -1,0c0,-0.67 0,-1.33 0,-2c0,-0.67 0,-1.33 0,-2c3.35,-1.82 7.01,-2.49 11,-2z" fill="#aec8b0" id="svg_402"/>
  </g>
  <g id="svg_403">
   <path d="m89.5,233.5c1,-0.09 1.83,0.25 2.5,1c0.5,2.65 0.66,5.31 0.5,8c-1.33,0 -2.67,0 -4,0c0.01,-3.04 0.34,-6.04 1,-9z" fill="#71ad33" id="svg_404"/>
  </g>
  <g id="svg_405">
   <path d="m227.5,232.5c-0.08,1.25 -0.74,2.08 -2,2.5c-2.65,0.5 -5.31,0.66 -8,0.5c2.33,-0.67 4.67,-1.33 7,-2c1.11,-0.06 2.11,-0.39 3,-1z" fill="#72a443" id="svg_406"/>
  </g>
  <g id="svg_407">
   <path d="m282.5,232.5c-1.48,3.23 -2.48,6.56 -3,10c-0.17,-3.02 0,-6.02 0.5,-9c0.67,-0.75 1.5,-1.09 2.5,-1z" fill="#8fb765" id="svg_408"/>
  </g>
  <g id="svg_409">
   <path d="m141.5,233.5c0.33,0 0.67,0 1,0c5.47,-0.2 9.47,2.13 12,7c-1.56,-0.23 -2.9,-0.9 -4,-2c-0.45,-0.96 -1.12,-1.79 -2,-2.5c-2,-0.33 -4,-0.67 -6,-1c-0.56,-0.38 -0.89,-0.88 -1,-1.5z" fill="#b2d2a8" id="svg_410"/>
  </g>
  <g id="svg_411">
   <path d="m138.5,232.5c1.11,0.06 2.11,0.39 3,1c0.11,0.62 0.44,1.12 1,1.5c2,0.33 4,0.67 6,1c0.88,0.71 1.55,1.54 2,2.5c-5.25,0.26 -9.25,-1.74 -12,-6z" fill="#a4c992" id="svg_412"/>
  </g>
  <g id="svg_413">
   <path d="m184.5,236.5c4.57,0.94 9.24,1.27 14,1c0,1.67 0,3.33 0,5c-1.33,0 -2.67,0 -4,0c-2.79,-0.98 -5.79,-1.31 -9,-1c-0.13,-1.72 -0.46,-3.38 -1,-5z" fill="#d2def2" id="svg_414"/>
  </g>
  <g id="svg_415">
   <path d="m211.5,235.5c0.33,0 0.67,0 1,0c0,0.67 0,1.33 0,2c-3.25,0.75 -6.58,1.25 -10,1.5c-0.75,0.67 -1.09,1.5 -1,2.5c-0.67,0.33 -1.33,0.67 -2,1c0.24,-4.49 2.57,-6.49 7,-6c1.91,0.28 3.58,-0.05 5,-1z" fill="#bbd0c9" id="svg_416"/>
  </g>
  <g id="svg_417">
   <path d="m153.5,236.5c4.11,0.2 7.78,1.2 11,3c0.06,1.11 0.39,2.11 1,3c-0.99,0.17 -1.66,-0.16 -2,-1c-0.11,-0.62 -0.44,-1.12 -1,-1.5c-2.33,-0.33 -4.67,-0.67 -7,-1c-0.88,-0.71 -1.55,-1.54 -2,-2.5z" fill="#d5e8de" id="svg_418"/>
  </g>
  <g id="svg_419">
   <path d="m80.5,234.5c0,-0.33 0,-0.67 0,-1c0.67,0 1.33,0 2,0c0.67,0 1.33,0 2,0c0,0.67 0,1.33 0,2c0,2.67 0,5.33 0,8c-0.93,-1.07 -1.27,-2.4 -1,-4c0.58,-2.78 -0.42,-4.45 -3,-5z" fill="#e1edd4" id="svg_420"/>
  </g>
  <g id="svg_421">
   <path d="m212.5,237.5c0.33,0 0.67,0 1,0c-0.33,0.67 -0.67,1.33 -1,2c-3.99,-0.49 -7.65,0.18 -11,2c-0.09,-1 0.25,-1.83 1,-2.5c3.42,-0.25 6.75,-0.75 10,-1.5z" fill="#9cbd90" id="svg_422"/>
  </g>
  <g id="svg_423">
   <path d="m224.5,233.5c-2.33,0.67 -4.67,1.33 -7,2c-1,0.33 -1.67,1 -2,2c-0.77,1.19 -1.77,2.19 -3,3c0,-0.33 0,-0.67 0,-1c0.33,-0.67 0.67,-1.33 1,-2c0,-0.33 0,-0.67 0,-1c3.08,-2.69 6.75,-3.69 11,-3z" fill="#81ad5e" id="svg_424"/>
  </g>
  <g id="svg_425">
   <path d="m84.5,233.5c0.62,0.11 1.12,0.44 1.5,1c0.18,2.87 0.68,5.53 1.5,8c0,0.67 0.33,1 1,1c1.03,0.75 2.2,1.41 3.5,2c0.5,3.32 0.67,6.65 0.5,10c-0.33,0 -0.67,0 -1,0c0.16,-3.02 0,-6.02 -0.5,-9c-1.01,-0.84 -2.18,-1.17 -3.5,-1c-1.48,-3.23 -2.48,-6.56 -3,-10c0,-0.67 0,-1.33 0,-2z" fill="#adcf88" id="svg_426"/>
  </g>
  <g id="svg_427">
   <path d="m142.5,233.5c0,-0.33 0,-0.67 0,-1c2.75,-0.31 5.41,0.02 8,1c0.5,1.42 1.5,2.09 3,2c0,0.33 0,0.67 0,1c0.45,0.96 1.12,1.79 2,2.5c2.33,0.33 4.67,0.67 7,1c0.56,0.38 0.89,0.88 1,1.5c-2.93,-0.8 -5.93,-1.13 -9,-1c-2.53,-4.87 -6.53,-7.2 -12,-7z" fill="#c4ddc4" id="svg_428"/>
  </g>
  <g id="svg_429">
   <path d="m212.5,239.5c0,0.33 0,0.67 0,1c-2.88,-0.31 -5.55,0.03 -8,1c-0.67,0 -1,0.33 -1,1c-0.74,1.73 -2.07,2.73 -4,3c0,-0.33 0,-0.67 0,-1c1.41,-0.47 2.07,-1.47 2,-3c3.35,-1.82 7.01,-2.49 11,-2z" fill="#88b16b" id="svg_430"/>
  </g>
  <g id="svg_431">
   <path d="m215.5,237.5c0,1.33 0,2.67 0,4c-3.67,0 -7.33,0 -11,0c2.45,-0.97 5.12,-1.31 8,-1c1.23,-0.81 2.23,-1.81 3,-3z" fill="#72a443" id="svg_432"/>
  </g>
  <g id="svg_433">
   <path d="m282.5,235.5c0.17,3.02 0,6.02 -0.5,9c-0.38,0.56 -0.88,0.89 -1.5,1c0.51,-3.48 1.18,-6.82 2,-10z" fill="#d1e1c0" id="svg_434"/>
  </g>
  <g id="svg_435">
   <path d="m130.5,230.5c1.51,1.82 3.51,2.82 6,3c2.05,2.05 4.38,3.71 7,5c2.79,2.58 5.79,4.92 9,7c-2.36,0.25 -4.36,-0.42 -6,-2c-3.29,-2.28 -6.96,-3.94 -11,-5c0.24,-1.29 -0.1,-2.29 -1,-3c-2.06,-1.06 -3.39,-2.72 -4,-5z" fill="#7db14f" id="svg_436"/>
  </g>
  <g id="svg_437">
   <path d="m154.5,240.5c3.07,-0.13 6.07,0.2 9,1c0.34,0.84 1.01,1.17 2,1c0,0.33 0,0.67 0,1c0.33,0.67 0.67,1.33 1,2c-4.11,-1.83 -8.11,-3.5 -12,-5z" fill="#b1d2a5" id="svg_438"/>
  </g>
  <g id="svg_439">
   <path d="m278.5,242.5c-0.33,0 -0.67,0 -1,0c-1.33,0 -2.67,0 -4,0c-0.17,-3.35 0,-6.68 0.5,-10c1.01,-0.84 2.18,-1.17 3.5,-1c0.22,3.68 0.56,7.35 1,11z" fill="#5e9722" id="svg_440"/>
  </g>
  <g id="svg_441">
   <path d="m164.5,239.5c1.42,0.25 2.42,1.08 3,2.5c4.99,0.5 9.99,0.67 15,0.5c0,0.33 0,0.67 0,1c-5.67,0 -11.33,0 -17,0c0,-0.33 0,-0.67 0,-1c-0.61,-0.89 -0.94,-1.89 -1,-3z" fill="#ddecec" id="svg_442"/>
  </g>
  <g id="svg_443">
   <path d="m201.5,241.5c0.07,1.53 -0.59,2.53 -2,3c0,-0.33 0,-0.67 0,-1c0,-0.33 0,-0.67 0,-1c0.67,-0.33 1.33,-0.67 2,-1z" fill="#a5c29f" id="svg_444"/>
  </g>
  <g id="svg_445">
   <path d="m84.5,235.5c0.52,3.44 1.52,6.77 3,10c-1.53,0.07 -2.53,-0.59 -3,-2c0,-2.67 0,-5.33 0,-8z" fill="#cfe3ba" id="svg_446"/>
  </g>
  <g id="svg_447">
   <path d="m165.5,243.5c5.67,0 11.33,0 17,0c5.67,0 11.33,0 17,0c0,0.33 0,0.67 0,1c-10.67,0.33 -21.33,0.67 -32,1c-0.33,0 -0.67,0 -1,0c-0.33,-0.67 -0.67,-1.33 -1,-2z" fill="#bdd6c2" id="svg_448"/>
  </g>
  <g id="svg_449">
   <path d="m288.5,231.5c0.09,1 -0.25,1.83 -1,2.5c-1.27,0.31 -2.43,0.81 -3.5,1.5c-0.33,3.33 -0.67,6.67 -1,10c-1.01,0.84 -2.18,1.17 -3.5,1c0,-0.33 0,-0.67 0,-1c0.33,0 0.67,0 1,0c0.62,-0.11 1.12,-0.44 1.5,-1c0.5,-2.98 0.67,-5.98 0.5,-9c0.33,-1 1,-1.67 2,-2c1.56,-0.23 2.89,-0.9 4,-2z" fill="#ecf3e5" id="svg_450"/>
  </g>
  <g id="svg_451">
   <path d="m83.5,239.5c-0.27,1.6 0.07,2.93 1,4c0.47,1.41 1.47,2.07 3,2c0,0.33 0,0.67 0,1c-1.64,0.21 -3.14,-0.12 -4.5,-1c-0.79,-2.21 -0.62,-4.21 0.5,-6z" fill="#f1f7eb" id="svg_452"/>
  </g>
  <g id="svg_453">
   <path d="m143.5,238.5c2.61,-0.1 4.94,0.57 7,2c3.33,2.95 7.33,4.45 12,4.5c0.56,0.38 0.89,0.88 1,1.5c-0.67,0 -1.33,0 -2,0c-3.04,-0.01 -6.04,-0.34 -9,-1c-3.21,-2.08 -6.21,-4.42 -9,-7z" fill="#89b864" id="svg_454"/>
  </g>
  <g id="svg_455">
   <path d="m199.5,244.5c0,0.33 0,0.67 0,1c-1,0 -2,0 -3,0c-9.83,1 -19.5,1 -29,0c10.67,-0.33 21.33,-0.67 32,-1z" fill="#a8c7a3" id="svg_456"/>
  </g>
  <g id="svg_457">
   <path d="m150.5,238.5c1.1,1.1 2.44,1.77 4,2c3.89,1.5 7.89,3.17 12,5c0.33,0 0.67,0 1,0c9.5,1 19.17,1 29,0c-10.8,3.37 -21.8,3.7 -33,1c-0.11,-0.62 -0.44,-1.12 -1,-1.5c-4.67,-0.05 -8.67,-1.55 -12,-4.5c0,-0.67 0,-1.33 0,-2z" fill="#96bd83" id="svg_458"/>
  </g>
  <g id="svg_459">
   <path d="m203.5,242.5c0.06,3.99 -1.94,5.65 -6,5c0.67,-0.67 1.33,-1.33 2,-2c1.93,-0.27 3.26,-1.27 4,-3z" fill="#74a547" id="svg_460"/>
  </g>
  <g id="svg_461">
   <path d="m196.5,245.5c1,0 2,0 3,0c-0.67,0.67 -1.33,1.33 -2,2c-1.6,-0.27 -2.93,0.07 -4,1c-7.32,0.62 -14.65,0.95 -22,1c-3.22,0.16 -5.88,-0.84 -8,-3c11.2,2.7 22.2,2.37 33,-1z" fill="#86b369" id="svg_462"/>
  </g>
  <g id="svg_463">
   <path d="m275.5,243.5c-1.84,3.69 -2.51,7.69 -2,12c-0.33,0 -0.67,0 -1,0c0,-0.33 0,-0.67 0,-1c0,-1.67 0,-3.33 0,-5c0,-2 0,-4 0,-6c1,0 2,0 3,0z" fill="#76a744" id="svg_464"/>
  </g>
  <g id="svg_465">
   <path d="m87.5,246.5c0,-0.33 0,-0.67 0,-1c1.32,-0.17 2.49,0.16 3.5,1c0.5,2.98 0.66,5.98 0.5,9c-0.33,0 -0.67,0 -1,0c0.16,-2.69 0,-5.35 -0.5,-8c-0.67,-0.75 -1.5,-1.09 -2.5,-1z" fill="#cbe1b5" id="svg_466"/>
  </g>
  <g id="svg_467">
   <path d="m88.5,243.5c1.64,-0.21 3.14,0.12 4.5,1c0.18,3.53 0.68,6.86 1.5,10c0,0.33 0,0.67 0,1c-0.67,0 -1.33,0 -2,0c0.17,-3.35 0,-6.68 -0.5,-10c-1.3,-0.59 -2.47,-1.25 -3.5,-2z" fill="#93c064" id="svg_468"/>
  </g>
  <g id="svg_469">
   <path d="m193.5,248.5c-1.33,0.67 -2.67,1.33 -4,2c-6.19,0.32 -12.19,-0.01 -18,-1c7.35,-0.05 14.68,-0.38 22,-1z" fill="#80b05d" id="svg_470"/>
  </g>
  <g id="svg_471">
   <path d="m282.5,232.5c0.67,0 1.33,0 2,0c0,0.33 0,0.67 0,1c-1,0.33 -1.67,1 -2,2c-0.82,3.18 -1.49,6.52 -2,10c-0.33,0 -0.67,0 -1,0c-1.52,0.01 -2.68,0.68 -3.5,2c-0.33,3 -0.67,6 -1,9c-0.67,0.75 -1.5,1.09 -2.5,1c-0.33,0 -0.67,0 -1,0c0.67,-0.67 1.33,-1.33 2,-2c0.82,-2.81 1.32,-5.81 1.5,-9c1.67,-1.23 3.17,-2.57 4.5,-4c0.52,-3.44 1.52,-6.77 3,-10z" fill="#b5cf99" id="svg_472"/>
  </g>
  <g id="svg_473">
   <path d="m146.5,243.5c1.64,1.58 3.64,2.25 6,2c2.96,0.66 5.96,0.99 9,1c2.3,2.82 5.3,4.66 9,5.5c4.32,0.5 8.65,0.67 13,0.5c0,0.33 0,0.67 0,1c-0.67,0 -1.33,0 -2,0c-8.37,1.2 -16.03,-0.47 -23,-5c-3.31,-0.66 -6.64,-1.16 -10,-1.5c-1.32,-0.82 -1.99,-1.98 -2,-3.5z" fill="#7bb148" id="svg_474"/>
  </g>
  <g id="svg_475">
   <path d="m161.5,246.5c0.67,0 1.33,0 2,0c2.12,2.16 4.78,3.16 8,3c5.81,0.99 11.81,1.32 18,1c-1.8,0.96 -3.8,1.63 -6,2c-4.35,0.17 -8.68,0 -13,-0.5c-3.7,-0.84 -6.7,-2.68 -9,-5.5z" fill="#7caf50" id="svg_476"/>
  </g>
  <g id="svg_477">
   <path d="m197.5,247.5c-1.81,0.98 -3.14,2.48 -4,4.5c-2.98,0.7 -5.98,1.2 -9,1.5c-0.33,0 -0.67,0 -1,0c0,-0.33 0,-0.67 0,-1c2.2,-0.37 4.2,-1.04 6,-2c1.33,-0.67 2.67,-1.33 4,-2c1.07,-0.93 2.4,-1.27 4,-1z" fill="#6fa240" id="svg_478"/>
  </g>
  <g id="svg_479">
   <path d="m277.5,242.5c0.33,0 0.67,0 1,0c0.33,0 0.67,0 1,0c-1.33,1.43 -2.83,2.77 -4.5,4c-0.18,3.19 -0.68,6.19 -1.5,9c-0.51,-4.31 0.16,-8.31 2,-12c0.99,0.17 1.66,-0.16 2,-1z" fill="#92b869" id="svg_480"/>
  </g>
  <g id="svg_481">
   <path d="m94.5,254.5c0.08,-2.71 0.41,-5.37 1,-8c1,0 2,0 3,0c0,2.67 0,5.33 0,8c-1.33,0 -2.67,0 -4,0z" fill="#70ac31" id="svg_482"/>
  </g>
  <g id="svg_483">
   <path d="m272.5,249.5c0,1.67 0,3.33 0,5c-1.67,0 -3.33,0 -5,0c-0.61,-4.53 1.06,-6.2 5,-5z" fill="#5b961f" id="svg_484"/>
  </g>
  <g id="svg_485">
   <path d="m181.5,253.5c0.67,0 1.33,0 2,0c0.33,0 0.67,0 1,0c-1.24,14.94 -1.91,29.94 -2,45c-1.6,1.06 -3.27,1.06 -5,0c3.41,-14.64 4.74,-29.64 4,-45z" fill="#74ab3b" id="svg_486"/>
  </g>
  <g id="svg_487">
   <path d="m266.5,259.5c0,0.33 0,0.67 0,1c-2,0 -4,0 -6,0c-0.44,-4.41 1.56,-6.07 6,-5c0,1.33 0,2.67 0,4z" fill="#5f9824" id="svg_488"/>
  </g>
  <g id="svg_489">
   <path d="m92.5,255.5c0.67,0 1.33,0 2,0c0,0.67 0.33,1 1,1c0.33,0.67 0.67,1.33 1,2c-0.67,0 -1.33,0 -2,0c-0.67,-1 -1.33,-2 -2,-3z" fill="#b4d393" id="svg_490"/>
  </g>
  <g id="svg_491">
   <path d="m95.5,256.5c2.68,0.02 4.01,1.36 4,4c-0.67,-0.33 -1.33,-0.67 -2,-1c0,-0.67 -0.33,-1 -1,-1c-0.33,-0.67 -0.67,-1.33 -1,-2z" fill="#99c46d" id="svg_492"/>
  </g>
  <g id="svg_493">
   <path d="m272.5,255.5c0.33,0 0.67,0 1,0c-0.67,0.67 -1.33,1.33 -2,2c-1,0.67 -2,1.33 -3,2c0.33,-2.33 1.67,-3.67 4,-4z" fill="#97bc71" id="svg_494"/>
  </g>
  <g id="svg_495">
   <path d="m279.5,245.5c0,0.33 0,0.67 0,1c-0.96,0.45 -1.79,1.12 -2.5,2c-0.33,3 -0.67,6 -1,9c-1.33,1.08 -2.83,1.75 -4.5,2c0.33,-0.67 0.67,-1.33 1,-2c1,0.09 1.83,-0.25 2.5,-1c0.33,-3 0.67,-6 1,-9c0.82,-1.32 1.98,-1.99 3.5,-2z" fill="#e0ebd4" id="svg_496"/>
  </g>
  <g id="svg_497">
   <path d="m90.5,255.5c0.33,0 0.67,0 1,0c0.06,1.11 0.39,2.11 1,3c-1.55,-0.32 -2.21,-1.32 -2,-3z" fill="#e8f2de" id="svg_498"/>
  </g>
  <g id="svg_499">
   <path d="m91.5,255.5c0.33,0 0.67,0 1,0c0.67,1 1.33,2 2,3c-0.67,0 -1.33,0 -2,0c-0.61,-0.89 -0.94,-1.89 -1,-3z" fill="#d6e7c4" id="svg_500"/>
  </g>
  <g id="svg_501">
   <path d="m97.5,259.5c0.67,0.33 1.33,0.67 2,1c0.33,1 1,1.67 2,2c0.33,0.67 0.67,1.33 1,2c-0.67,0 -1.33,0 -2,0c-1.42,-1.42 -2.42,-3.09 -3,-5z" fill="#b2d291" id="svg_502"/>
  </g>
  <g id="svg_503">
   <path d="m94.5,258.5c0.67,0 1.33,0 2,0c0.67,0 1,0.33 1,1c0.58,1.91 1.58,3.58 3,5c-2.88,-1.06 -4.88,-3.06 -6,-6z" fill="#d3e5c0" id="svg_504"/>
  </g>
  <g id="svg_505">
   <path d="m101.5,262.5c2,0 3,1 3,3c-0.67,-0.33 -1.33,-0.67 -2,-1c-0.33,-0.67 -0.67,-1.33 -1,-2z" fill="#9dc672" id="svg_506"/>
  </g>
  <g id="svg_507">
   <path d="m266.5,259.5c0.67,0 1.33,0 2,0c-0.23,1.56 -0.9,2.89 -2,4c-2.98,0.98 -4.98,2.98 -6,6c-1.9,0.24 -3.24,1.24 -4,3c-0.33,0 -0.67,0 -1,0c3.19,-4.35 6.86,-8.35 11,-12c0,-0.33 0,-0.67 0,-1z" fill="#97bc71" id="svg_508"/>
  </g>
  <g id="svg_509">
   <path d="m271.5,257.5c0.33,0 0.67,0 1,0c-0.33,0.67 -0.67,1.33 -1,2c-0.67,0 -1,0.33 -1,1c-0.74,1.73 -2.07,2.73 -4,3c1.1,-1.11 1.77,-2.44 2,-4c1,-0.67 2,-1.33 3,-2z" fill="#c5dab0" id="svg_510"/>
  </g>
  <g id="svg_511">
   <path d="m256.5,262.5c1,0 2,0 3,0c0,1.33 0,2.67 0,4c-1.33,0 -2.67,0 -4,0c-0.07,-1.46 0.27,-2.79 1,-4z" fill="#5a951e" id="svg_512"/>
  </g>
  <g id="svg_513">
   <path d="m270.5,260.5c0,1.33 0,2.67 0,4c-1.72,0.13 -3.38,0.46 -5,1c0.33,-0.67 0.67,-1.33 1,-2c1.93,-0.27 3.26,-1.27 4,-3z" fill="#ecf3e5" id="svg_514"/>
  </g>
  <g id="svg_515">
   <path d="m101.5,265.5c1.41,0.47 2.07,1.47 2,3c-1.41,-0.47 -2.07,-1.47 -2,-3z" fill="#e2eed5" id="svg_516"/>
  </g>
  <g id="svg_517">
   <path d="m104.5,265.5c1.16,2.13 2.99,3.46 5.5,4c0.46,0.59 0.63,1.26 0.5,2c-0.67,-0.33 -1.33,-0.67 -2,-1c-2.8,-0.47 -4.13,-2.13 -4,-5z" fill="#a8cc82" id="svg_518"/>
  </g>
  <g id="svg_519">
   <path d="m266.5,263.5c-0.33,0.67 -0.67,1.33 -1,2c-0.67,0 -1,0.33 -1,1c-1.41,0.47 -2.07,1.47 -2,3c-0.67,0 -1.33,0 -2,0c1.02,-3.02 3.02,-5.02 6,-6z" fill="#c1d7aa" id="svg_520"/>
  </g>
  <g id="svg_521">
   <path d="m264.5,266.5c0,0.67 0,1.33 0,2c-0.67,0.33 -1.33,0.67 -2,1c-0.07,-1.53 0.59,-2.53 2,-3z" fill="#dee9d2" id="svg_522"/>
  </g>
  <g id="svg_523">
   <path d="m100.5,264.5c0.67,0 1.33,0 2,0c0.67,0.33 1.33,0.67 2,1c-0.13,2.87 1.2,4.53 4,5c0,0.67 0,1.33 0,2c-2.25,-0.62 -3.92,-1.96 -5,-4c0.07,-1.53 -0.59,-2.53 -2,-3c-0.67,0 -1,-0.33 -1,-1z" fill="#d3e5c0" id="svg_524"/>
  </g>
  <g id="svg_525">
   <path d="m250.5,268.5c1,0 2,0 3,0c0,1.33 0,2.67 0,4c-1.33,0 -2.67,0 -4,0c-0.07,-1.46 0.27,-2.79 1,-4z" fill="#5a951e" id="svg_526"/>
  </g>
  <g id="svg_527">
   <path d="m260.5,269.5c-0.33,0.67 -0.67,1.33 -1,2c-1,0.33 -1.67,1 -2,2c-0.33,0 -0.67,0 -1,0c0,-0.33 0,-0.67 0,-1c0.76,-1.76 2.1,-2.76 4,-3z" fill="#c8dbb3" id="svg_528"/>
  </g>
  <g id="svg_529">
   <path d="m264.5,268.5c-0.55,2.58 -2.21,3.58 -5,3c0.33,-0.67 0.67,-1.33 1,-2c0.67,0 1.33,0 2,0c0.67,-0.33 1.33,-0.67 2,-1z" fill="#f1f6ec" id="svg_530"/>
  </g>
  <g id="svg_531">
   <path d="m108.5,270.5c0.67,0.33 1.33,0.67 2,1c0,0.67 0,1.33 0,2c-0.67,-0.33 -1.33,-0.67 -2,-1c0,-0.67 0,-1.33 0,-2z" fill="#bed9a2" id="svg_532"/>
  </g>
  <g id="svg_533">
   <path d="m110.5,271.5c0.67,0 1,0.33 1,1c0.67,1 1.33,2 2,3c-1.53,0.07 -2.53,-0.59 -3,-2c0,-0.67 0,-1.33 0,-2z" fill="#a9cd83" id="svg_534"/>
  </g>
  <g id="svg_535">
   <path d="m111.5,272.5c2.47,0.8 4.47,2.13 6,4c-0.33,0 -0.67,0 -1,0c-0.71,-0.9 -1.71,-1.24 -3,-1c-0.67,-1 -1.33,-2 -2,-3z" fill="#8bbc59" id="svg_536"/>
  </g>
  <g id="svg_537">
   <path d="m254.5,273.5c-0.67,0.67 -1.33,1.33 -2,2c-1.93,0.27 -3.26,1.27 -4,3c0.31,-3.51 2.31,-5.18 6,-5z" fill="#7dab4c" id="svg_538"/>
  </g>
  <g id="svg_539">
   <path d="m255.5,272.5c0.33,0 0.67,0 1,0c0,0.33 0,0.67 0,1c-0.33,1 -1,1.67 -2,2c-0.67,0 -1.33,0 -2,0c0.67,-0.67 1.33,-1.33 2,-2c0.67,0 1,-0.33 1,-1z" fill="#acca8d" id="svg_540"/>
  </g>
  <g id="svg_541">
   <path d="m108.5,272.5c0.67,0.33 1.33,0.67 2,1c0.47,1.41 1.47,2.07 3,2c1.1,1.11 1.77,2.44 2,4c-0.33,0 -0.67,0 -1,0c-2.71,-1.71 -4.71,-4.05 -6,-7z" fill="#d8e8c6" id="svg_542"/>
  </g>
  <g id="svg_543">
   <path d="m244.5,274.5c1,0 2,0 3,0c0,1.33 0,2.67 0,4c-1.33,0 -2.67,0 -4,0c-0.07,-1.46 0.27,-2.79 1,-4z" fill="#5a951d" id="svg_544"/>
  </g>
  <g id="svg_545">
   <path d="m256.5,273.5c0.33,0 0.67,0 1,0c0,2 -1,3 -3,3c0,-0.33 0,-0.67 0,-1c1,-0.33 1.67,-1 2,-2z" fill="#dbe8ce" id="svg_546"/>
  </g>
  <g id="svg_547">
   <path d="m113.5,275.5c1.29,-0.24 2.29,0.1 3,1c0,1 0,2 0,3c-0.33,0 -0.67,0 -1,0c-0.23,-1.56 -0.9,-2.89 -2,-4z" fill="#accf88" id="svg_548"/>
  </g>
  <g id="svg_549">
   <path d="m116.5,276.5c0.33,0 0.67,0 1,0c0.58,1.91 1.58,3.58 3,5c-1.56,-0.23 -2.89,-0.9 -4,-2c0,-1 0,-2 0,-3z" fill="#9ac56e" id="svg_550"/>
  </g>
  <g id="svg_551">
   <path d="m252.5,275.5c-1.33,2 -2.67,4 -4,6c-0.67,0 -1.33,0 -2,0c0,-0.33 0,-0.67 0,-1c1,-0.33 1.67,-1 2,-2c0.74,-1.73 2.07,-2.73 4,-3z" fill="#99bd74" id="svg_552"/>
  </g>
  <g id="svg_553">
   <path d="m246.5,280.5c0,0.33 0,0.67 0,1c-2,0 -3,1 -3,3c0.17,0.99 -0.16,1.66 -1,2c0,-0.33 0,-0.67 0,-1c-0.74,-3.45 0.59,-5.12 4,-5z" fill="#81ae53" id="svg_554"/>
  </g>
  <g id="svg_555">
   <path d="m114.5,279.5c0.33,0 0.67,0 1,0c0.33,0 0.67,0 1,0c0.03,1.7 0.69,3.03 2,4c-3,0.33 -4.33,-1 -4,-4z" fill="#e9f2e0" id="svg_556"/>
  </g>
  <g id="svg_557">
   <path d="m116.5,279.5c1.11,1.1 2.44,1.77 4,2c0.33,1 1,1.67 2,2c-0.17,1.32 0.16,2.49 1,3.5c2.98,0.5 5.98,0.67 9,0.5c0,0.33 0,0.67 0,1c-3,0 -6,0 -9,0c-1.33,-1.67 -2.67,-3.33 -4,-5c-0.33,0 -0.67,0 -1,0c-1.31,-0.97 -1.97,-2.3 -2,-4z" fill="#c8deaf" id="svg_558"/>
  </g>
  <g id="svg_559">
   <path d="m124.5,280.5c3.35,-0.17 6.68,0 10,0.5c1.33,1 1.33,2 0,3c-3.32,0.5 -6.65,0.67 -10,0.5c0,-1.33 0,-2.67 0,-4z" fill="#73ad35" id="svg_560"/>
  </g>
  <g id="svg_561">
   <path d="m252.5,275.5c0.67,0 1.33,0 2,0c0,0.33 0,0.67 0,1c-1,0.33 -1.67,1 -2,2c-0.77,0.76 -1.27,1.76 -1.5,3c-0.67,0.75 -1.5,1.09 -2.5,1c0,-0.33 0,-0.67 0,-1c1.33,-2 2.67,-4 4,-6z" fill="#cfe0be" id="svg_562"/>
  </g>
  <g id="svg_563">
   <path d="m120.5,281.5c1.68,-0.21 2.68,0.45 3,2c-0.33,0 -0.67,0 -1,0c-1,-0.33 -1.67,-1 -2,-2z" fill="#95c266" id="svg_564"/>
  </g>
  <g id="svg_565">
   <path d="m241.5,285.5c-1.67,0 -3.33,0 -5,0c-0.73,-1.21 -1.73,-2.21 -3,-3c2.43,-1.55 5.1,-2.22 8,-2c0,1.67 0,3.33 0,5z" fill="#5b961f" id="svg_566"/>
  </g>
  <g id="svg_567">
   <path d="m246.5,281.5c-0.67,1.33 -1.67,2.33 -3,3c0,-2 1,-3 3,-3z" fill="#9abe75" id="svg_568"/>
  </g>
  <g id="svg_569">
   <path d="m252.5,278.5c0.3,4.15 -1.7,6.15 -6,6c0.33,-1 1,-1.67 2,-2c1,0.09 1.83,-0.25 2.5,-1c0.23,-1.24 0.73,-2.24 1.5,-3z" fill="#f0f5ea" id="svg_570"/>
  </g>
  <g id="svg_571">
   <path d="m124.5,285.5c3.35,-0.17 6.68,0 10,0.5c0.75,0.67 1.09,1.5 1,2.5c-0.89,-0.61 -1.89,-0.94 -3,-1c-2.67,-0.67 -5.33,-1.33 -8,-2z" fill="#8abb56" id="svg_572"/>
  </g>
  <g id="svg_573">
   <path d="m236.5,285.5c1.67,0 3.33,0 5,0c0.33,0 0.67,0 1,0c0,0.33 0,0.67 0,1c-4.31,-0.51 -8.31,0.16 -12,2c-0.09,-1 0.25,-1.83 1,-2.5c1.63,-0.49 3.3,-0.66 5,-0.5z" fill="#77a845" id="svg_574"/>
  </g>
  <g id="svg_575">
   <path d="m122.5,283.5c0.33,0 0.67,0 1,0c-0.17,0.99 0.16,1.66 1,2c2.67,0.67 5.33,1.33 8,2c-3.02,0.17 -6.02,0 -9,-0.5c-0.84,-1.01 -1.17,-2.18 -1,-3.5z" fill="#a5cb7e" id="svg_576"/>
  </g>
  <g id="svg_577">
   <path d="m137.5,291.5c-0.9,-0.71 -1.24,-1.71 -1,-3c0.29,-1.15 1.12,-1.82 2.5,-2c3,0.24 4.17,1.91 3.5,5c-1.67,0 -3.33,0 -5,0z" fill="#74ae37" id="svg_578"/>
  </g>
  <g id="svg_579">
   <path d="m246.5,281.5c0.67,0 1.33,0 2,0c0,0.33 0,0.67 0,1c-1,0.33 -1.67,1 -2,2c-0.67,0 -1,0.33 -1,1c-0.77,0.67 -1.43,1.5 -2,2.5c-3.19,0.18 -6.19,0.68 -9,1.5c-1,0.33 -1.67,1 -2,2c-0.33,0 -0.67,0 -1,0c0.01,-1.52 0.68,-2.68 2,-3.5c3.19,-0.18 6.19,-0.68 9,-1.5c0.84,-0.34 1.17,-1.01 1,-2c1.33,-0.67 2.33,-1.67 3,-3z" fill="#b9d29f" id="svg_580"/>
  </g>
  <g id="svg_581">
   <path d="m123.5,288.5c3,0 6,0 9,0c0,0.67 0,1.33 0,2c-0.33,0 -0.67,0 -1,0c-2.67,-0.67 -5.33,-1.33 -8,-2z" fill="#deebce" id="svg_582"/>
  </g>
  <g id="svg_583">
   <path d="m242.5,286.5c-2.81,0.82 -5.81,1.32 -9,1.5c-1.32,0.82 -1.99,1.98 -2,3.5c-2.71,1.71 -4.71,4.05 -6,7c-0.33,0 -0.67,0 -1,0c0,-0.67 0,-1.33 0,-2c1.34,-2.17 3.17,-3.84 5.5,-5c0.48,-0.95 0.65,-1.95 0.5,-3c3.69,-1.84 7.69,-2.51 12,-2z" fill="#93b96b" id="svg_584"/>
  </g>
  <g id="svg_585">
   <path d="m245.5,285.5c0.17,1.32 -0.16,2.49 -1,3.5c-3.32,0.5 -6.65,0.67 -10,0.5c2.81,-0.82 5.81,-1.32 9,-1.5c0.57,-1 1.23,-1.83 2,-2.5z" fill="#dae7cc" id="svg_586"/>
  </g>
  <g id="svg_587">
   <path d="m119.5,283.5c1.33,1.67 2.67,3.33 4,5c2.67,0.67 5.33,1.33 8,2c-3.4,0.32 -6.73,-0.01 -10,-1c-0.87,-1.95 -1.54,-3.95 -2,-6z" fill="#f2f7ec" id="svg_588"/>
  </g>
  <g id="svg_589">
   <path d="m132.5,288.5c1.41,0.47 2.07,1.47 2,3c-0.67,-0.33 -1.33,-0.67 -2,-1c0,-0.67 0,-1.33 0,-2z" fill="#c5ddac" id="svg_590"/>
  </g>
  <g id="svg_591">
   <path d="m132.5,288.5c0,-0.33 0,-0.67 0,-1c1.11,0.06 2.11,0.39 3,1c0.33,0 0.67,0 1,0c-0.24,1.29 0.1,2.29 1,3c2.34,0.8 3.67,2.46 4,5c-1,-0.67 -2,-1.33 -3,-2c-1.29,-0.99 -2.63,-1.99 -4,-3c0.07,-1.53 -0.59,-2.53 -2,-3z" fill="#99c46c" id="svg_592"/>
  </g>
  <g id="svg_593">
   <path d="m234.5,289.5c-0.06,1.11 -0.39,2.11 -1,3c-0.33,0 -0.67,0 -1,0c0,-0.33 0,-0.67 0,-1c0.33,-1 1,-1.67 2,-2z" fill="#d9e6cb" id="svg_594"/>
  </g>
  <g id="svg_595">
   <path d="m132.5,290.5c0.67,0.33 1.33,0.67 2,1c0,0.67 0,1.33 0,2c-1.41,-0.47 -2.07,-1.47 -2,-3z" fill="#ddebcf" id="svg_596"/>
  </g>
  <g id="svg_597">
   <path d="m134.5,291.5c1.37,1.01 2.71,2.01 4,3c-1,0 -2,0 -3,0c-0.67,0 -1,-0.33 -1,-1c0,-0.67 0,-1.33 0,-2z" fill="#c8dfb0" id="svg_598"/>
  </g>
  <g id="svg_599">
   <path d="m147.5,297.5c-1,0 -2,0 -3,0c-0.73,-1.21 -1.07,-2.54 -1,-4c4.71,-0.33 9.38,0.01 14,1c-0.21,0.59 -0.54,1.09 -1,1.5c-3.19,0.18 -6.19,0.68 -9,1.5z" fill="#72ad33" id="svg_600"/>
  </g>
  <g id="svg_601">
   <path d="m223.5,296.5c-1.42,0.95 -3.09,1.28 -5,1c-3.8,-0.98 -7.8,-1.32 -12,-1c-0.17,-1.32 0.16,-2.49 1,-3.5c5.32,-0.5 10.66,-0.67 16,-0.5c0,1.33 0,2.67 0,4z" fill="#5f9824" id="svg_602"/>
  </g>
  <g id="svg_603">
   <path d="m232.5,292.5c0.33,0 0.67,0 1,0c0,1 0,2 0,3c-1.72,0.13 -3.38,0.46 -5,1c1.33,-1.33 2.67,-2.67 4,-4z" fill="#eff5e9" id="svg_604"/>
  </g>
  <g id="svg_605">
   <path d="m135.5,294.5c1,0 2,0 3,0c0,0.67 0,1.33 0,2c-1.53,0.07 -2.53,-0.59 -3,-2z" fill="#e5f0d9" id="svg_606"/>
  </g>
  <g id="svg_607">
   <path d="m138.5,294.5c1,0.67 2,1.33 3,2c0,0.67 0,1.33 0,2c-1,-0.67 -2,-1.33 -3,-2c0,-0.67 0,-1.33 0,-2z" fill="#c3dca9" id="svg_608"/>
  </g>
  <g id="svg_609">
   <path d="m142.5,297.5c0.67,0 1.33,0 2,0c1,0 2,0 3,0c3.68,-0.17 7.35,0 11,0.5c1.47,0.71 2.14,1.88 2,3.5c-0.33,0 -0.67,0 -1,0c-0.32,-1.55 -1.32,-2.21 -3,-2c-4.67,-0.67 -9.33,-1.33 -14,-2z" fill="#89ba54" id="svg_610"/>
  </g>
  <g id="svg_611">
   <path d="m223.5,296.5c0.33,0 0.67,0 1,0c0,0.67 0,1.33 0,2c-5.25,0.79 -10.59,1.29 -16,1.5c-0.75,0.67 -1.09,1.5 -1,2.5c-0.67,0.33 -1.33,0.67 -2,1c0,-1.67 0,-3.33 0,-5c4.27,-0.87 8.6,-1.21 13,-1c1.91,0.28 3.58,-0.05 5,-1z" fill="#7eac4e" id="svg_612"/>
  </g>
  <g id="svg_613">
   <path d="m141.5,296.5c0.67,0 1,0.33 1,1c4.67,0.67 9.33,1.33 14,2c-5.19,0.32 -10.19,-0.01 -15,-1c0,-0.67 0,-1.33 0,-2z" fill="#a0c876" id="svg_614"/>
  </g>
  <g id="svg_615">
   <path d="m177.5,298.5c1.73,1.06 3.4,1.06 5,0c0.67,0 1,0.33 1,1c-2.25,0.79 -2.58,2.13 -1,4c-6.68,0.17 -13.34,0 -20,-0.5c-0.88,-1.36 -1.21,-2.86 -1,-4.5c5.33,0 10.67,0 16,0z" fill="#73ad36" id="svg_616"/>
  </g>
  <g id="svg_617">
   <path d="m205.5,298.5c0,1.67 0,3.33 0,5c-7.67,0 -15.33,0 -23,0c-1.58,-1.87 -1.25,-3.21 1,-4c7.28,-0.93 14.61,-1.26 22,-1z" fill="#609925" id="svg_618"/>
  </g>
  <g id="svg_619">
   <path d="m224.5,298.5c0.33,0 0.67,0 1,0c-0.11,0.62 -0.44,1.12 -1,1.5c-5,0.33 -10,0.67 -15,1c-0.54,0.72 -1.21,1.22 -2,1.5c-0.09,-1 0.25,-1.83 1,-2.5c5.41,-0.21 10.75,-0.71 16,-1.5z" fill="#afcb91" id="svg_620"/>
  </g>
  <g id="svg_621">
   <path d="m138.5,296.5c1,0.67 2,1.33 3,2c4.81,0.99 9.81,1.32 15,1c0,0.33 0,0.67 0,1c0,0.33 0,0.67 0,1c-5.01,0.17 -10.01,0 -15,-0.5c-0.54,-0.72 -1.21,-1.22 -2,-1.5c-0.61,-0.89 -0.94,-1.89 -1,-3z" fill="#cfe3ba" id="svg_622"/>
  </g>
  <g id="svg_623">
   <path d="m156.5,300.5c0,-0.33 0,-0.67 0,-1c1.68,-0.21 2.68,0.45 3,2c-0.89,-0.61 -1.89,-0.94 -3,-1z" fill="#9fc775" id="svg_624"/>
  </g>
  <g id="svg_625">
   <path d="m228.5,296.5c-0.37,1.94 -1.04,3.77 -2,5.5c-5.32,0.5 -10.66,0.67 -16,0.5c4.82,-0.83 9.82,-1.33 15,-1.5c0.55,-1.88 1.55,-3.38 3,-4.5z" fill="#eef4e7" id="svg_626"/>
  </g>
  <g id="svg_627">
   <path d="m156.5,301.5c0,-0.33 0,-0.67 0,-1c1.11,0.06 2.11,0.39 3,1c0,0.67 0,1.33 0,2c-0.33,0 -0.67,0 -1,0c-0.33,-1 -1,-1.67 -2,-2z" fill="#b5d495" id="svg_628"/>
  </g>
  <g id="svg_629">
   <path d="m159.5,301.5c0.33,0 0.67,0 1,0c-0.09,1 0.25,1.83 1,2.5c14.33,0.5 28.66,0.67 43,0.5c-14.49,1 -29.16,1.33 -44,1c-0.33,-0.67 -0.67,-1.33 -1,-2c0,-0.67 0,-1.33 0,-2z" fill="#97c06d" id="svg_630"/>
  </g>
  <g id="svg_631">
   <path d="m207.5,302.5c-0.01,1.52 -0.68,2.68 -2,3.5c-15,0.5 -30,0.67 -45,0.5c0,-0.33 0,-0.67 0,-1c14.84,0.33 29.51,0 44,-1c0.67,0 1,-0.33 1,-1c0.67,-0.33 1.33,-0.67 2,-1z" fill="#adcc8e" id="svg_632"/>
  </g>
  <g id="svg_633">
   <path d="m231.5,291.5c0.33,0 0.67,0 1,0c0,0.33 0,0.67 0,1c-1.33,1.33 -2.67,2.67 -4,4c-1.45,1.12 -2.45,2.62 -3,4.5c-5.18,0.17 -10.18,0.67 -15,1.5c-0.67,0 -1,0.33 -1,1c-0.75,1.03 -1.41,2.2 -2,3.5c-15.84,0.83 -31.5,0.66 -47,-0.5c15,0.17 30,0 45,-0.5c1.32,-0.82 1.99,-1.98 2,-3.5c0.79,-0.28 1.46,-0.78 2,-1.5c5,-0.33 10,-0.67 15,-1c0.56,-0.38 0.89,-0.88 1,-1.5c1.29,-2.95 3.29,-5.29 6,-7z" fill="#cee0bb" id="svg_634"/>
  </g>
  <g id="svg_635">
   <path d="m139.5,299.5c0.79,0.28 1.46,0.78 2,1.5c4.99,0.5 9.99,0.67 15,0.5c1,0.33 1.67,1 2,2c-0.07,1.53 0.59,2.53 2,3c15.5,1.16 31.16,1.33 47,0.5c0.59,-1.3 1.25,-2.47 2,-3.5c0.21,1.64 -0.12,3.14 -1,4.5c-16.33,0.67 -32.67,0.67 -49,0c-1.37,-1.44 -2.37,-3.11 -3,-5c-5.66,-0.5 -11.32,-0.67 -17,-0.5c0,-1 0,-2 0,-3z" fill="#e8f1df" id="svg_636"/>
  </g>
  <g id="svg_637">
   <path d="m158.5,303.5c0.33,0 0.67,0 1,0c0.33,0.67 0.67,1.33 1,2c0,0.33 0,0.67 0,1c-1.41,-0.47 -2.07,-1.47 -2,-3z" fill="#c7deae" id="svg_638"/>
  </g>
 </g>
</svg>