<?xml version="1.0" encoding="UTF-8"?>
<!DOCTYPE svg PUBLIC "-//W3C//DTD SVG 1.1//EN" "http://www.w3.org/Graphics/SVG/1.1/DTD/svg11.dtd">
<svg xmlns="http://www.w3.org/2000/svg" version="1.1" width="512px" height="512px" style="shape-rendering:geometricPrecision; text-rendering:geometricPrecision; image-rendering:optimizeQuality; fill-rule:evenodd; clip-rule:evenodd" xmlns:xlink="http://www.w3.org/1999/xlink">
<g><path style="opacity:0.994" fill="#abe133" d="M 208.5,-0.5 C 210.5,-0.5 212.5,-0.5 214.5,-0.5C 214.5,21.1667 214.5,42.8333 214.5,64.5C 212.073,64.523 209.74,65.023 207.5,66C 167.601,101.976 120.601,120.31 66.5,121C 61,122.5 57.5,126 56,131.5C 55.3333,168.5 55.3333,205.5 56,242.5C 61.8911,324.156 99.7244,385.989 169.5,428C 183.654,436.416 198.654,442.583 214.5,446.5C 214.5,468.167 214.5,489.833 214.5,511.5C 212.5,511.5 210.5,511.5 208.5,511.5C 103.282,473.111 36.115,399.778 7,291.5C 3.82775,276.467 1.32775,261.467 -0.5,246.5C -0.5,191.5 -0.5,136.5 -0.5,81.5C 1.31481,77.5212 4.31481,74.6878 8.5,73C 84.2744,72.2527 150.941,47.7527 208.5,-0.5 Z"/></g>
<g><path style="opacity:1" fill="#65cc3a" d="M 214.5,-0.5 C 216.5,-0.5 218.5,-0.5 220.5,-0.5C 278.054,47.7512 344.72,72.2512 420.5,73C 424.667,74.5 427.5,77.3333 429,81.5C 429.667,136.5 429.667,191.5 429,246.5C 428.301,252.489 427.801,258.489 427.5,264.5C 413.568,259.768 399.235,257.435 384.5,257.5C 380.5,257.5 376.5,257.5 372.5,257.5C 373.563,215.506 373.729,173.506 373,131.5C 371.167,126.333 367.667,122.833 362.5,121C 309.453,121.123 263.453,103.457 224.5,68C 221.395,66.1319 218.062,64.9652 214.5,64.5C 214.5,42.8333 214.5,21.1667 214.5,-0.5 Z"/></g>
<g><path style="opacity:1" fill="#65cc3a" d="M 214.5,64.5 C 214.5,128.833 214.5,193.167 214.5,257.5C 207.035,250.536 199.702,243.369 192.5,236C 185.803,231.421 179.136,231.421 172.5,236C 166.444,242.741 165.944,249.907 171,257.5C 182.167,268.667 193.333,279.833 204.5,291C 207.561,293.035 210.895,294.201 214.5,294.5C 214.5,345.167 214.5,395.833 214.5,446.5C 198.654,442.583 183.654,436.416 169.5,428C 99.7244,385.989 61.8911,324.156 56,242.5C 55.3333,205.5 55.3333,168.5 56,131.5C 57.5,126 61,122.5 66.5,121C 120.601,120.31 167.601,101.976 207.5,66C 209.74,65.023 212.073,64.523 214.5,64.5 Z"/></g>
<g><path style="opacity:1" fill="#009884" d="M 214.5,64.5 C 218.062,64.9652 221.395,66.1319 224.5,68C 263.453,103.457 309.453,121.123 362.5,121C 367.667,122.833 371.167,126.333 373,131.5C 373.729,173.506 373.563,215.506 372.5,257.5C 322.123,265.056 286.623,292.056 266,338.5C 255.225,367.357 254.725,396.357 264.5,425.5C 248.651,434.45 231.985,441.45 214.5,446.5C 214.5,395.833 214.5,345.167 214.5,294.5C 218.229,294.424 221.562,293.257 224.5,291C 249.333,266.167 274.167,241.333 299,216.5C 304.873,206.419 302.706,198.586 292.5,193C 287.141,190.726 282.141,191.392 277.5,195C 256.632,216.035 235.632,236.868 214.5,257.5C 214.5,193.167 214.5,128.833 214.5,64.5 Z"/></g>
<g><path style="opacity:1" fill="#d5d5f1" d="M 214.5,294.5 C 214.5,282.167 214.5,269.833 214.5,257.5C 235.632,236.868 256.632,216.035 277.5,195C 282.141,191.392 287.141,190.726 292.5,193C 302.706,198.586 304.873,206.419 299,216.5C 274.167,241.333 249.333,266.167 224.5,291C 221.562,293.257 218.229,294.424 214.5,294.5 Z"/></g>
<g><path style="opacity:1" fill="#f0f1f9" d="M 214.5,257.5 C 214.5,269.833 214.5,282.167 214.5,294.5C 210.895,294.201 207.561,293.035 204.5,291C 193.333,279.833 182.167,268.667 171,257.5C 165.944,249.907 166.444,242.741 172.5,236C 179.136,231.421 185.803,231.421 192.5,236C 199.702,243.369 207.035,250.536 214.5,257.5 Z"/></g>
<g><path style="opacity:1" fill="#d5d5f1" d="M 372.5,257.5 C 376.5,257.5 380.5,257.5 384.5,257.5C 384.5,276.167 384.5,294.833 384.5,313.5C 359.028,315.137 341.528,327.803 332,351.5C 327.351,367.334 329.184,382.334 337.5,396.5C 310.987,411.352 293.32,433.352 284.5,462.5C 275.52,451.548 268.853,439.214 264.5,425.5C 254.725,396.357 255.225,367.357 266,338.5C 286.623,292.056 322.123,265.056 372.5,257.5 Z"/></g>
<g><path style="opacity:1" fill="#bebeee" d="M 384.5,257.5 C 399.235,257.435 413.568,259.768 427.5,264.5C 475.054,283.386 503.054,318.052 511.5,368.5C 511.5,379.167 511.5,389.833 511.5,400.5C 508.135,423.934 499.135,444.934 484.5,463.5C 476.517,434.349 459.35,412.349 433,397.5C 434.319,392.495 435.986,387.495 438,382.5C 443.192,350.712 431.025,328.545 401.5,316C 395.91,314.581 390.243,313.748 384.5,313.5C 384.5,294.833 384.5,276.167 384.5,257.5 Z"/></g>
<g><path style="opacity:1" fill="#47568c" d="M 384.5,313.5 C 390.243,313.748 395.91,314.581 401.5,316C 431.025,328.545 443.192,350.712 438,382.5C 435.986,387.495 434.319,392.495 433,397.5C 459.35,412.349 476.517,434.349 484.5,463.5C 462.789,490.36 434.789,506.36 400.5,511.5C 395.167,511.5 389.833,511.5 384.5,511.5C 384.5,445.5 384.5,379.5 384.5,313.5 Z"/></g>
<g><path style="opacity:0.997" fill="#61729b" d="M 384.5,313.5 C 384.5,379.5 384.5,445.5 384.5,511.5C 379.167,511.5 373.833,511.5 368.5,511.5C 340.172,507.002 315.505,495.002 294.5,475.5C 291.191,471.185 287.857,466.852 284.5,462.5C 293.32,433.352 310.987,411.352 337.5,396.5C 329.184,382.334 327.351,367.334 332,351.5C 341.528,327.803 359.028,315.137 384.5,313.5 Z"/></g>
<g><path style="opacity:1" fill="#65cc3a" d="M 264.5,425.5 C 268.853,439.214 275.52,451.548 284.5,462.5C 287.857,466.852 291.191,471.185 294.5,475.5C 271.117,490.192 246.45,502.192 220.5,511.5C 218.5,511.5 216.5,511.5 214.5,511.5C 214.5,489.833 214.5,468.167 214.5,446.5C 231.985,441.45 248.651,434.45 264.5,425.5 Z"/></g>
</svg>
